<svg width="90" height="90" viewBox="0 0 90 90" fill="none" xmlns="http://www.w3.org/2000/svg">
<rect width="90" height="90" rx="45" fill="#954CED"/>
<g clip-path="url(#clip0_151_446)">
<path d="M54.8386 22.6353H47.2092V53.4717C47.2092 57.1459 44.2749 60.1639 40.6232 60.1639C36.9715 60.1639 34.0371 57.1459 34.0371 53.4717C34.0371 49.8632 36.9063 46.9107 40.4276 46.7796V39.0377C32.6677 39.1688 26.4077 45.533 26.4077 53.4717C26.4077 61.4762 32.7981 67.9058 40.6884 67.9058C48.5786 67.9058 54.969 61.4105 54.969 53.4717V37.6598C57.8382 39.7594 61.3594 41.0059 65.0763 41.0716V33.3296C59.338 33.1328 54.8386 28.4089 54.8386 22.6353Z" fill="white"/>
</g>
<defs>
<clipPath id="clip0_151_446">
<rect width="45.2706" height="45.2706" fill="white" transform="translate(22.6353 22.6353)"/>
</clipPath>
</defs>
</svg>
