<svg width="90" height="90" viewBox="0 0 90 90" fill="none" xmlns="http://www.w3.org/2000/svg">
<rect width="90" height="90" rx="45" fill="#954CED"/>
<g clip-path="url(#clip0_151_442)">
<path d="M36.8719 63.6629C53.9553 63.6629 63.2991 49.5095 63.2991 37.2357C63.2991 36.8337 63.2991 36.4335 63.2719 36.0351C65.0897 34.7203 66.6588 33.0923 67.9058 31.2274C66.2108 31.9789 64.4125 32.4715 62.5712 32.6887C64.5102 31.5281 65.9614 29.7024 66.6546 27.5514C64.8314 28.6334 62.8367 29.3959 60.7567 29.8059C59.3563 28.3168 57.5042 27.3308 55.487 27.0004C53.4697 26.67 51.3998 27.0137 49.5976 27.9782C47.7954 28.9427 46.3612 30.4744 45.5172 32.3361C44.6731 34.1978 44.4661 36.2858 44.9283 38.2769C41.2356 38.0917 37.6231 37.132 34.3254 35.4602C31.0276 33.7884 28.1182 31.4418 25.7861 28.5727C24.5984 30.6175 24.2346 33.038 24.7688 35.3415C25.3031 37.645 26.6952 39.6583 28.6617 40.9715C27.1835 40.9281 25.7375 40.5294 24.4461 39.8089V39.9266C24.4467 42.071 25.189 44.1492 26.5471 45.8087C27.9053 47.4682 29.7957 48.6068 31.8976 49.0314C30.5302 49.4044 29.0955 49.4589 27.7037 49.1908C28.2975 51.0362 29.4531 52.6499 31.0089 53.8064C32.5647 54.9629 34.443 55.6043 36.3812 55.6409C34.4555 57.1546 32.2502 58.2738 29.8915 58.9344C27.5328 59.595 25.0671 59.784 22.6353 59.4907C26.8828 62.2164 31.825 63.6623 36.8719 63.6556" fill="white"/>
</g>
<defs>
<clipPath id="clip0_151_442">
<rect width="45.2706" height="45.2706" fill="white" transform="translate(22.6353 22.6353)"/>
</clipPath>
</defs>
</svg>
