<svg width="733" height="362" viewBox="0 0 733 362" fill="none" xmlns="http://www.w3.org/2000/svg">
<g clip-path="url(#clip0_267_607)">
<mask id="mask0_267_607" style="mask-type:luminance" maskUnits="userSpaceOnUse" x="0" y="0" width="733" height="362">
<path d="M703 0H30C13.4315 0 0 13.4315 0 30V332C0 348.569 13.4315 362 30 362H703C719.569 362 733 348.569 733 332V30C733 13.4315 719.569 0 703 0Z" fill="white"/>
</mask>
<g mask="url(#mask0_267_607)">
<path d="M703 0H30C13.4315 0 0 13.4315 0 30V332C0 348.569 13.4315 362 30 362H703C719.569 362 733 348.569 733 332V30C733 13.4315 719.569 0 703 0Z" fill="#F5F5F5"/>
<path opacity="0.7" d="M282 375C276 303 177.5 265.846 89.7475 276.849C4.59401 287.526 -22.0491 343.646 10.4557 352.618C31.5 358.427 66.138 320.367 59.07 265.846C52.002 211.326 -31.591 206.027 -56.1852 230.838C-80.7794 255.649 -33.6539 292.837 -16.1676 258.382C2.91999 220.771 -3.65112 132.228 -64.3765 136.963C-72.7355 147.467 -80.8773 170.532 -46.5728 178.756C-3.69227 189.036 64.3877 105.838 47.8815 33.615C31.3753 -38.6079 -64.3765 -3.49997 -39.9801 67.507" stroke="#A64CED" stroke-width="70"/>
<path opacity="0.7" d="M145.91 46.7081L45.6593 77.7262C28.7102 82.9703 19.2214 100.962 24.4656 117.911L105.809 380.814C111.053 397.763 129.044 407.252 145.994 402.008L246.245 370.99C263.194 365.746 272.683 347.755 267.438 330.805L186.095 67.9018C180.851 50.9527 162.86 41.4639 145.91 46.7081Z" fill="black"/>
<mask id="mask1_267_607" style="mask-type:luminance" maskUnits="userSpaceOnUse" x="28" y="50" width="236" height="349">
<path d="M147.493 51.8229L47.2417 82.8411C33.1175 87.2112 25.2102 102.204 29.5803 116.328L110.924 379.232C115.294 393.356 130.287 401.263 144.411 396.893L244.662 365.875C258.786 361.505 266.694 346.512 262.324 332.388L180.98 69.4844C176.61 55.3601 161.617 47.4528 147.493 51.8229Z" fill="white"/>
</mask>
<g mask="url(#mask1_267_607)">
<path d="M147.493 51.8229L47.2417 82.8411C33.1175 87.2112 25.2102 102.204 29.5803 116.328L110.924 379.232C115.294 393.356 130.287 401.263 144.411 396.893L244.662 365.875C258.786 361.505 266.694 346.512 262.324 332.388L180.98 69.4844C176.61 55.3601 161.617 47.4528 147.493 51.8229Z" fill="white"/>
<mask id="mask2_267_607" style="mask-type:luminance" maskUnits="userSpaceOnUse" x="58" y="122" width="155" height="139">
<path d="M163.901 122.968L73.8793 150.821C62.5799 154.317 56.2541 166.311 59.7501 177.611L80.6401 245.127C84.1361 256.426 96.1303 262.752 107.43 259.256L197.452 231.403C208.751 227.907 215.077 215.913 211.581 204.613L190.691 137.097C187.195 125.797 175.201 119.472 163.901 122.968Z" fill="white"/>
</mask>
<g mask="url(#mask2_267_607)">
<path d="M163.901 122.968L73.8793 150.821C62.5799 154.317 56.2541 166.311 59.7501 177.611L80.6401 245.127C84.1361 256.426 96.1303 262.752 107.43 259.256L197.452 231.403C208.751 227.907 215.077 215.913 211.581 204.613L190.691 137.097C187.195 125.797 175.201 119.472 163.901 122.968Z" fill="#F9F9F9"/>
<path opacity="0.7" d="M83.7822 240.792L104.242 234.461" stroke="#2FDBBC" stroke-width="128.498" stroke-linecap="round"/>
<path d="M83.0331 219.263C84.4995 219.452 85.8413 218.416 86.0302 216.95C86.2191 215.484 85.1835 214.142 83.7171 213.953C82.2507 213.764 80.9089 214.8 80.72 216.266C80.5311 217.732 81.5668 219.074 83.0331 219.263Z" fill="black"/>
<path d="M105.883 217.887C107.35 218.076 108.691 217.04 108.88 215.574C109.069 214.108 108.034 212.766 106.567 212.577C105.101 212.388 103.759 213.424 103.57 214.89C103.381 216.356 104.417 217.698 105.883 217.887Z" fill="black"/>
<path d="M96.7637 240.242C99.5684 241.418 105.312 239.734 101.367 234.23C110.063 231.539 101.235 224.743 96.0244 228.52" stroke="black" stroke-width="2.14163" stroke-linecap="round" stroke-linejoin="round"/>
<path d="M159.824 233.703C163.443 233.158 165.924 231.864 167.245 230.402M167.245 230.402C170.24 227.092 167.285 222.926 158.134 224.677M167.245 230.402C168.622 230.083 170.638 229.364 172.22 228.218M136.709 253.314C150.489 268.934 150.752 233.998 150.503 226.321C150.254 218.645 149.103 204.711 155.406 205.205C160.449 205.601 158.98 213.472 157.953 219.094C158.98 213.472 161.383 204.295 165.198 205.586C170.849 207.499 167.166 216.004 164.969 220.034M161.532 221.772C164.496 219.813 171.72 217.11 174.116 222.062C175.433 224.784 174.15 226.819 172.22 228.218M172.22 228.218C174.723 240.775 173.943 259.79 167.304 270.484C160.666 281.178 148.668 284.594 145.404 284.467" stroke="black" stroke-width="2.14163" stroke-linecap="round" stroke-linejoin="round"/>
<path d="M162.579 183.905C165.404 183.031 166.985 180.032 166.111 177.208C165.237 174.383 162.239 172.801 159.414 173.675C156.589 174.549 155.007 177.548 155.881 180.373C156.755 183.198 159.754 184.779 162.579 183.905Z" stroke="black" stroke-width="2.14163"/>
<path d="M195.851 164.644C198.676 163.77 200.257 160.771 199.383 157.947C198.509 155.122 195.511 153.54 192.686 154.414C189.861 155.288 188.279 158.287 189.153 161.112C190.027 163.937 193.026 165.518 195.851 164.644Z" stroke="black" stroke-width="2.14163"/>
<path d="M166.148 175.515L188.959 162.293M159.256 173.164L153.779 144.594" stroke="black" stroke-width="2.14163" stroke-linecap="round" stroke-linejoin="round"/>
<path d="M145.51 143.229L162.596 144.108" stroke="black" stroke-width="2.14163" stroke-linecap="round" stroke-linejoin="round"/>
</g>
<mask id="mask3_267_607" style="mask-type:luminance" maskUnits="userSpaceOnUse" x="47" y="123" width="27" height="26">
<path d="M72.5906 132.164C70.493 125.385 63.2965 121.589 56.5169 123.687C49.7372 125.785 45.9417 132.981 48.0393 139.761C50.137 146.54 57.3335 150.336 64.1131 148.238C70.8928 146.141 74.6883 138.944 72.5906 132.164Z" fill="white"/>
</mask>
<g mask="url(#mask3_267_607)">
<path d="M72.5906 132.164C70.493 125.385 63.2965 121.589 56.5169 123.687C49.7372 125.785 45.9417 132.981 48.0393 139.761C50.137 146.54 57.3335 150.336 64.1131 148.238C70.8928 146.141 74.6883 138.944 72.5906 132.164Z" fill="#DAFAF4"/>
<path opacity="0.7" d="M63.3841 135.012L57.2463 136.911C52.1615 138.485 49.3149 143.882 50.8882 148.967C52.4614 154.051 57.8588 156.898 62.9435 155.325L69.0813 153.426C74.1661 151.853 77.0127 146.455 75.4394 141.37C73.8662 136.286 68.4688 133.439 63.3841 135.012Z" fill="#2FDBBC"/>
<path d="M59.973 143.915C60.2555 143.827 60.4136 143.527 60.3262 143.245C60.2388 142.962 59.939 142.804 59.6565 142.892C59.374 142.979 59.2159 143.279 59.3033 143.561C59.3907 143.844 59.6905 144.002 59.973 143.915Z" fill="black"/>
<path d="M65.0883 142.332C65.3707 142.244 65.5289 141.944 65.4415 141.662C65.3541 141.379 65.0542 141.221 64.7717 141.309C64.4893 141.396 64.3311 141.696 64.4185 141.978C64.5059 142.261 64.8058 142.419 65.0883 142.332Z" fill="black"/>
</g>
<mask id="mask4_267_607" style="mask-type:luminance" maskUnits="userSpaceOnUse" x="107" y="317" width="27" height="27">
<path d="M132.727 326.528C130.63 319.749 123.433 315.953 116.654 318.051C109.874 320.148 106.078 327.345 108.176 334.125C110.274 340.904 117.47 344.7 124.25 342.602C131.03 340.504 134.825 333.308 132.727 326.528Z" fill="white"/>
</mask>
<g mask="url(#mask4_267_607)">
<path d="M132.727 326.528C130.63 319.749 123.433 315.953 116.654 318.051C109.874 320.148 106.078 327.345 108.176 334.125C110.274 340.904 117.47 344.7 124.25 342.602C131.03 340.504 134.825 333.308 132.727 326.528Z" fill="#FFF5EB"/>
<path opacity="0.7" d="M123.52 329.377L117.383 331.276C112.298 332.85 109.451 338.247 111.024 343.332C112.598 348.416 117.995 351.263 123.08 349.69L129.218 347.791C134.302 346.218 137.149 340.82 135.576 335.735C134.002 330.651 128.605 327.804 123.52 329.377Z" fill="#FDC280"/>
<path d="M120.109 338.279C120.392 338.191 120.55 337.891 120.462 337.609C120.375 337.326 120.075 337.168 119.793 337.256C119.51 337.343 119.352 337.643 119.44 337.925C119.527 338.208 119.827 338.366 120.109 338.279Z" fill="black"/>
<path d="M125.225 336.696C125.507 336.609 125.666 336.309 125.578 336.027C125.491 335.744 125.191 335.586 124.908 335.674C124.626 335.761 124.468 336.061 124.555 336.343C124.643 336.626 124.942 336.784 125.225 336.696Z" fill="black"/>
<path d="M120.363 339.097C121.098 338.87 121.509 338.09 121.282 337.356C121.054 336.621 120.275 336.21 119.54 336.437C118.806 336.664 118.395 337.444 118.622 338.178C118.849 338.913 119.629 339.324 120.363 339.097Z" stroke="black" stroke-width="0.428327"/>
<path d="M125.477 337.515C126.212 337.288 126.623 336.508 126.396 335.774C126.169 335.039 125.389 334.628 124.655 334.855C123.92 335.082 123.509 335.862 123.736 336.596C123.963 337.331 124.743 337.742 125.477 337.515Z" stroke="black" stroke-width="0.428327"/>
<path d="M121.486 337.293L123.532 336.66" stroke="black" stroke-width="0.428327" stroke-linecap="round" stroke-linejoin="round"/>
</g>
<path d="M80.691 133.928L80.3796 132.921L82.9575 132.124C83.4485 131.972 83.7888 131.709 83.9784 131.337C84.1655 130.956 84.1958 130.561 84.0692 130.152C83.9831 129.874 83.8445 129.643 83.6533 129.46C83.4597 129.269 83.2239 129.145 82.9461 129.087C82.6764 129.027 82.3861 129.045 82.0751 129.142L79.4604 129.951L79.149 128.944L81.5918 128.188C82.001 128.061 82.2914 127.855 82.4628 127.569C82.64 127.272 82.6653 126.919 82.5387 126.51C82.4121 126.101 82.189 125.829 81.8695 125.694C81.5474 125.552 81.1777 125.545 80.7603 125.675L78.3666 126.415L78.0551 125.409L80.4734 124.66C81.0299 124.488 81.5239 124.447 81.9555 124.538C82.3927 124.618 82.7561 124.792 83.0456 125.062C83.3433 125.328 83.5529 125.658 83.6745 126.051C83.8163 126.509 83.8135 126.949 83.6661 127.371C83.527 127.791 83.2464 128.174 82.8243 128.52L82.8085 128.121C83.4176 128.148 83.9356 128.315 84.3625 128.622C84.795 128.919 85.0948 129.337 85.2619 129.877C85.4012 130.327 85.4161 130.767 85.3065 131.195C85.197 131.624 84.9677 132.013 84.6187 132.363C84.2753 132.702 83.8049 132.964 83.2075 133.149L80.691 133.928ZM79.9176 134.167L77.2817 125.648L78.4357 125.291L81.0716 133.81L79.9176 134.167ZM89.7522 131.259C89.2775 131.406 88.815 131.432 88.3645 131.338C87.9197 131.234 87.5314 131.022 87.1996 130.703C86.8678 130.385 86.6234 129.972 86.4664 129.464L85.4181 126.076L86.5229 125.734L87.556 129.073C87.6548 129.392 87.7941 129.654 87.9739 129.859C88.1594 130.052 88.3775 130.178 88.6282 130.235C88.879 130.291 89.1476 130.276 89.434 130.187C89.8678 130.053 90.1656 129.813 90.3276 129.467C90.487 129.112 90.492 128.694 90.3426 128.211L89.3095 124.872L90.4143 124.53L91.4626 127.918C91.6196 128.426 91.6512 128.905 91.5574 129.355C91.4637 129.806 91.2627 130.2 90.9546 130.537C90.6522 130.864 90.2514 131.104 89.7522 131.259ZM96.8061 129.076C96.3641 129.213 95.9353 129.247 95.5195 129.178C95.1094 129.099 94.7473 128.929 94.4332 128.667C94.1191 128.406 93.8853 128.07 93.7316 127.66L93.1884 125.905C93.0813 125.472 93.0848 125.063 93.1988 124.678C93.3185 124.282 93.5264 123.94 93.8226 123.651C94.1245 123.351 94.4923 123.134 94.926 123C95.4579 122.835 95.9785 122.822 96.4876 122.961C97.0049 123.096 97.4572 123.356 97.8445 123.738C98.2318 124.12 98.5141 124.598 98.6913 125.171C98.8686 125.743 98.9053 126.297 98.8016 126.831C98.6979 127.366 98.471 127.835 98.1208 128.239C97.7763 128.633 97.338 128.912 96.8061 129.076ZM96.2991 128.09C96.6674 127.976 96.964 127.79 97.1891 127.532C97.4142 127.274 97.563 126.972 97.6355 126.627C97.7055 126.274 97.6797 125.901 97.5582 125.508C97.4392 125.123 97.251 124.805 96.9936 124.553C96.7363 124.3 96.4431 124.136 96.1142 124.058C95.7828 123.972 95.4371 123.985 95.077 124.096C94.7087 124.21 94.412 124.396 94.187 124.654C93.9594 124.904 93.8147 125.204 93.7528 125.555C93.691 125.906 93.7209 126.278 93.8425 126.671C93.9615 127.056 94.1415 127.376 94.3825 127.634C94.6291 127.88 94.9181 128.046 95.2496 128.132C95.5892 128.215 95.939 128.201 96.2991 128.09ZM93.6992 129.903L90.9873 121.138L92.0921 120.796L93.4405 125.154L93.6686 126.631L94.3178 127.99L94.804 129.561L93.6992 129.903ZM100.856 127.689L99.0522 121.858L100.157 121.516L101.961 127.347L100.856 127.689ZM99.2437 120.521C99.0391 120.584 98.8511 120.57 98.6797 120.48C98.5057 120.381 98.387 120.23 98.3237 120.025C98.263 119.829 98.2778 119.645 98.3682 119.473C98.4561 119.294 98.6024 119.172 98.807 119.109C99.0115 119.046 99.2008 119.063 99.3748 119.162C99.5463 119.252 99.6624 119.396 99.7232 119.592C99.7865 119.797 99.7742 119.989 99.6863 120.168C99.5958 120.34 99.4483 120.457 99.2437 120.521Z" fill="#B9B9B9"/>
<path d="M41.7792 108.978L39.1206 100.385L40.5323 99.9479L43.1909 108.541L41.7792 108.978ZM41.6096 104.995L41.2108 103.706L45.5809 102.354L45.9797 103.643L41.6096 104.995ZM40.4891 101.374L40.0903 100.085L44.6692 98.6679L45.068 99.9569L40.4891 101.374ZM51.0958 106.23C50.5066 106.412 49.9341 106.446 49.3784 106.33C48.8284 106.205 48.3421 105.952 47.9195 105.571C47.5051 105.188 47.208 104.706 47.0283 104.125C46.8485 103.544 46.8227 102.983 46.951 102.441C47.0767 101.891 47.327 101.41 47.7017 100.998C48.0846 100.584 48.5584 100.289 49.1231 100.115C49.6714 99.9449 50.1935 99.9223 50.6894 100.047C51.1934 100.169 51.6325 100.414 52.0065 100.783C52.3888 101.149 52.6672 101.614 52.842 102.179C52.8723 102.277 52.8958 102.382 52.9124 102.493C52.9346 102.594 52.9524 102.709 52.9658 102.84L48.1292 104.336L47.7874 103.231L51.9243 101.951L51.5577 102.549C51.4299 102.194 51.2667 101.913 51.068 101.705C50.8692 101.498 50.635 101.364 50.3654 101.304C50.1039 101.241 49.8095 101.261 49.4821 101.362C49.1384 101.468 48.8625 101.634 48.6544 101.86C48.4463 102.086 48.3144 102.355 48.2589 102.669C48.2008 102.973 48.2287 103.31 48.3426 103.678C48.4566 104.047 48.6302 104.347 48.8636 104.58C49.097 104.812 49.3728 104.965 49.691 105.037C50.0066 105.1 50.3404 105.078 50.6923 104.969C50.9951 104.875 51.2569 104.736 51.4777 104.551C51.7067 104.364 51.8795 104.14 51.9962 103.88L53.1252 104.485C52.9426 104.909 52.6733 105.271 52.3173 105.569C51.9612 105.868 51.5541 106.088 51.0958 106.23ZM57.6532 104.201C57.064 104.383 56.4915 104.417 55.9358 104.302C55.3858 104.176 54.8995 103.923 54.4769 103.542C54.0625 103.16 53.7654 102.678 53.5857 102.096C53.4059 101.515 53.3801 100.954 53.5084 100.412C53.6341 99.8621 53.8844 99.3812 54.2591 98.9693C54.642 98.5549 55.1158 98.2604 55.6805 98.0856C56.2288 97.916 56.7509 97.8934 57.2468 98.018C57.7508 98.14 58.1899 98.3853 58.5639 98.7538C58.9462 99.1197 59.2247 99.5851 59.3994 100.15C59.4298 100.248 59.4532 100.353 59.4698 100.464C59.492 100.565 59.5098 100.681 59.5232 100.811L54.6866 102.307L54.3448 101.203L58.4817 99.9226L58.1151 100.52C57.9873 100.165 57.8241 99.8839 57.6254 99.6764C57.4266 99.4688 57.1924 99.3351 56.9228 99.275C56.6613 99.2124 56.3669 99.2318 56.0396 99.3331C55.6958 99.4394 55.4199 99.6055 55.2118 99.8313C55.0037 100.057 54.8718 100.327 54.8163 100.64C54.7582 100.945 54.7861 101.281 54.9 101.649C55.014 102.018 55.1877 102.318 55.4211 102.551C55.6544 102.784 55.9302 102.936 56.2484 103.008C56.5641 103.072 56.8978 103.049 57.2497 102.94C57.5525 102.846 57.8143 102.707 58.0351 102.522C58.2641 102.335 58.4369 102.111 58.5537 101.851L59.6826 102.456C59.5 102.881 59.2307 103.242 58.8747 103.54C58.5187 103.839 58.1115 104.059 57.6532 104.201ZM63.9406 102.255C63.4086 102.42 62.884 102.434 62.3667 102.298C61.8576 102.16 61.4053 101.901 61.0098 101.521C60.6199 101.131 60.3364 100.649 60.1591 100.076C59.9794 99.495 59.9413 98.9374 60.045 98.4031C60.1544 97.8582 60.3801 97.3848 60.7221 96.9831C61.0697 96.5706 61.5095 96.2821 62.0415 96.1175C62.4916 95.9783 62.9189 95.9537 63.3234 96.0437C63.7335 96.1231 64.0928 96.2989 64.4012 96.5711C64.7096 96.8433 64.9297 97.1922 65.0613 97.6178L65.5855 99.3118C65.7171 99.7374 65.7326 100.15 65.6318 100.548C65.5392 100.945 65.3473 101.296 65.0562 101.601C64.7625 101.898 64.3907 102.116 63.9406 102.255ZM63.7665 100.91C64.102 100.807 64.3698 100.643 64.5697 100.42C64.7753 100.186 64.9059 99.9122 64.9614 99.599C65.017 99.2859 64.9903 98.9534 64.8815 98.6015C64.7726 98.2496 64.6068 97.9602 64.3841 97.7331C64.1614 97.5061 63.9005 97.3582 63.6012 97.2894C63.3076 97.2099 62.993 97.222 62.6575 97.3258C62.3301 97.4271 62.0636 97.5947 61.858 97.8287C61.6581 98.052 61.5263 98.3215 61.4625 98.6371C61.407 98.9502 61.4336 99.2827 61.5425 99.6346C61.6514 99.9865 61.8172 100.276 62.0398 100.503C62.2707 100.727 62.5329 100.879 62.8266 100.959C63.1258 101.028 63.4392 101.012 63.7665 100.91ZM67.0574 101.156L65.7071 101.574L65.2171 99.9907L65.006 98.4823L64.3322 97.1305L62.9724 92.7358L64.3228 92.318L67.0574 101.156Z" fill="#E4E4E4"/>
<mask id="mask5_267_607" style="mask-type:luminance" maskUnits="userSpaceOnUse" x="118" y="316" width="155" height="139">
<path d="M224.038 317.332L134.017 345.185C122.717 348.681 116.391 360.675 119.887 371.975L140.777 439.491C144.273 450.79 156.267 457.116 167.567 453.62L257.589 425.767C268.888 422.271 275.214 410.277 271.718 398.977L250.828 331.461C247.332 320.161 235.338 313.836 224.038 317.332Z" fill="white"/>
</mask>
<g mask="url(#mask5_267_607)">
<path d="M224.038 317.332L134.017 345.185C122.717 348.681 116.391 360.675 119.887 371.975L140.777 439.491C144.273 450.79 156.267 457.116 167.567 453.62L257.589 425.767C268.888 422.271 275.214 410.277 271.718 398.977L250.828 331.461C247.332 320.161 235.338 313.836 224.038 317.332Z" fill="#F9F9F9"/>
<path opacity="0.7" d="M286.994 350.536L221.523 370.793" stroke="#FFAA4C" stroke-width="103.147" stroke-linecap="round"/>
<path d="M220.275 356.736C218.632 359.316 212.766 361.269 209.247 360.095" stroke="black" stroke-width="2.14163" stroke-linecap="round" stroke-linejoin="round"/>
<path d="M194.93 355.483C196.342 355.046 197.133 353.546 196.696 352.134C196.259 350.721 194.759 349.931 193.347 350.368C191.935 350.805 191.144 352.304 191.581 353.716C192.018 355.129 193.517 355.92 194.93 355.483Z" fill="black"/>
<path d="M217.434 348.518C218.847 348.081 219.638 346.582 219.201 345.17C218.764 343.757 217.264 342.967 215.852 343.404C214.439 343.841 213.649 345.34 214.086 346.752C214.523 348.165 216.022 348.955 217.434 348.518Z" fill="black"/>
<path d="M198.753 358.783C202.707 357.559 204.921 353.361 203.698 349.406C202.474 345.452 198.276 343.238 194.321 344.461C190.367 345.685 188.153 349.883 189.376 353.838C190.6 357.792 194.798 360.006 198.753 358.783Z" stroke="black" stroke-width="2.14163"/>
<path d="M221.258 351.82C225.212 350.596 227.426 346.398 226.203 342.444C224.979 338.489 220.781 336.275 216.826 337.498C212.872 338.722 210.657 342.92 211.881 346.875C213.105 350.829 217.303 353.044 221.258 351.82Z" stroke="black" stroke-width="2.14163"/>
<path d="M203.856 349.918L212.04 347.386" stroke="black" stroke-width="2.14163" stroke-linecap="round" stroke-linejoin="round"/>
<path d="M135.016 375.564L133.688 375.262C131.382 374.738 129.087 376.183 128.562 378.49L122.893 403.426C122.369 405.733 123.814 408.028 126.12 408.552L150.795 414.162C153.102 414.686 155.397 413.241 155.921 410.935L161.59 385.998C162.115 383.691 160.67 381.396 158.363 380.872L152.055 379.438M135.016 375.564C135.505 370.989 137.689 362.113 142.512 363.209C147.335 364.305 146.515 373.492 145.501 377.948M135.016 375.564L140.259 376.756M152.055 379.438L145.501 377.948M152.055 379.438C153.584 374.731 155.163 365.038 149.244 363.912C143.324 362.787 140.787 372.006 140.259 376.756M145.501 377.948L140.259 376.756" stroke="black" stroke-width="2.14163" stroke-linecap="round" stroke-linejoin="round"/>
</g>
<path d="M140.828 328.292L140.517 327.286L143.095 326.488C143.586 326.336 143.926 326.074 144.116 325.702C144.303 325.321 144.333 324.926 144.207 324.517C144.12 324.238 143.982 324.008 143.791 323.825C143.597 323.634 143.361 323.509 143.084 323.452C142.814 323.392 142.524 323.41 142.213 323.506L139.598 324.315L139.286 323.309L141.729 322.553C142.138 322.426 142.429 322.22 142.6 321.933C142.777 321.637 142.803 321.284 142.676 320.874C142.549 320.465 142.326 320.193 142.007 320.059C141.685 319.917 141.315 319.91 140.898 320.039L138.504 320.78L138.193 319.773L140.611 319.025C141.167 318.853 141.661 318.812 142.093 318.903C142.53 318.983 142.894 319.157 143.183 319.426C143.481 319.693 143.69 320.022 143.812 320.415C143.954 320.874 143.951 321.314 143.804 321.736C143.664 322.156 143.384 322.538 142.962 322.884L142.946 322.486C143.555 322.512 144.073 322.679 144.5 322.987C144.932 323.283 145.232 323.702 145.399 324.242C145.539 324.692 145.553 325.131 145.444 325.56C145.334 325.988 145.105 326.377 144.756 326.728C144.413 327.067 143.942 327.329 143.345 327.514L140.828 328.292ZM140.055 328.532L137.419 320.012L138.573 319.655L141.209 328.175L140.055 328.532ZM149.89 325.623C149.415 325.77 148.952 325.797 148.502 325.703C148.057 325.599 147.669 325.387 147.337 325.068C147.005 324.749 146.761 324.336 146.604 323.829L145.556 320.441L146.66 320.099L147.693 323.438C147.792 323.757 147.931 324.019 148.111 324.223C148.297 324.417 148.515 324.542 148.766 324.599C149.016 324.656 149.285 324.64 149.571 324.552C150.005 324.417 150.303 324.177 150.465 323.831C150.624 323.477 150.629 323.059 150.48 322.576L149.447 319.237L150.552 318.895L151.6 322.283C151.757 322.79 151.789 323.269 151.695 323.72C151.601 324.17 151.4 324.564 151.092 324.902C150.79 325.228 150.389 325.469 149.89 325.623ZM156.943 323.441C156.502 323.578 156.073 323.612 155.657 323.543C155.247 323.464 154.885 323.293 154.571 323.032C154.257 322.77 154.023 322.435 153.869 322.025L153.326 320.269C153.219 319.836 153.222 319.427 153.336 319.042C153.456 318.646 153.664 318.304 153.96 318.015C154.262 317.716 154.63 317.499 155.063 317.364C155.595 317.2 156.116 317.187 156.625 317.325C157.142 317.461 157.595 317.72 157.982 318.102C158.369 318.485 158.651 318.962 158.829 319.535C159.006 320.108 159.043 320.662 158.939 321.196C158.835 321.73 158.608 322.199 158.258 322.604C157.914 322.997 157.475 323.276 156.943 323.441ZM156.437 322.454C156.805 322.341 157.101 322.155 157.327 321.897C157.552 321.639 157.7 321.337 157.773 320.992C157.843 320.638 157.817 320.265 157.696 319.872C157.577 319.488 157.388 319.169 157.131 318.917C156.874 318.665 156.581 318.5 156.252 318.423C155.92 318.337 155.574 318.35 155.214 318.461C154.846 318.575 154.549 318.761 154.324 319.019C154.097 319.269 153.952 319.569 153.89 319.92C153.828 320.271 153.858 320.643 153.98 321.036C154.099 321.42 154.279 321.741 154.52 321.998C154.767 322.245 155.056 322.411 155.387 322.497C155.727 322.58 156.076 322.566 156.437 322.454ZM153.837 324.268L151.125 315.503L152.23 315.161L153.578 319.519L153.806 320.995L154.455 322.355L154.941 323.926L153.837 324.268ZM163.364 321.454C162.889 321.601 162.427 321.628 161.976 321.534C161.532 321.43 161.143 321.218 160.811 320.899C160.48 320.58 160.235 320.167 160.078 319.66L159.03 316.272L160.135 315.93L161.168 319.269C161.267 319.588 161.406 319.85 161.586 320.054C161.771 320.248 161.989 320.373 162.24 320.43C162.491 320.487 162.759 320.471 163.046 320.383C163.48 320.248 163.777 320.008 163.939 319.662C164.099 319.308 164.104 318.89 163.954 318.407L162.921 315.068L164.026 314.726L165.074 318.114C165.231 318.621 165.263 319.1 165.169 319.551C165.076 320.001 164.875 320.395 164.566 320.733C164.264 321.059 163.863 321.3 163.364 321.454Z" fill="#B9B9B9"/>
<path opacity="0.7" d="M116.826 75.883L86.1373 85.3784C83.3125 86.2524 81.731 89.2509 82.605 92.0758L82.605 92.0758C83.4791 94.9007 86.4776 96.4821 89.3024 95.6081L119.992 86.1128C122.816 85.2387 124.398 82.2402 123.524 79.4153C122.65 76.5905 119.651 75.009 116.826 75.883Z" fill="black"/>
<path d="M93.402 282.808L90.7661 274.289L91.92 273.932L94.5559 282.451L93.402 282.808ZM102.031 280.273C101.589 280.41 101.16 280.444 100.744 280.375C100.334 280.296 99.9719 280.125 99.6578 279.864C99.3438 279.602 99.1099 279.267 98.9562 278.857L98.4131 277.102C98.3059 276.668 98.3094 276.259 98.4234 275.874C98.5431 275.479 98.751 275.136 99.0472 274.847C99.3491 274.548 99.7169 274.331 100.151 274.197C100.682 274.032 101.203 274.019 101.712 274.157C102.229 274.293 102.682 274.552 103.069 274.935C103.456 275.317 103.739 275.795 103.916 276.367C104.093 276.94 104.13 277.494 104.026 278.028C103.922 278.562 103.695 279.032 103.345 279.436C103.001 279.829 102.563 280.109 102.031 280.273ZM101.524 279.287C101.892 279.173 102.189 278.987 102.414 278.729C102.639 278.471 102.788 278.169 102.86 277.824C102.93 277.471 102.904 277.097 102.783 276.705C102.664 276.32 102.476 276.002 102.218 275.749C101.961 275.497 101.668 275.332 101.339 275.255C101.007 275.169 100.662 275.182 100.302 275.293C99.9333 275.407 99.6367 275.593 99.4116 275.851C99.184 276.101 99.0393 276.401 98.9775 276.752C98.9157 277.103 98.9455 277.475 99.0671 277.868C99.1861 278.252 99.3661 278.573 99.6071 278.831C99.8537 279.077 100.143 279.243 100.474 279.329C100.814 279.412 101.164 279.398 101.524 279.287ZM98.9238 281.1L96.2119 272.335L97.3167 271.993L98.6651 276.351L98.8932 277.827L99.5425 279.187L100.029 280.758L98.9238 281.1ZM108.77 278.188C108.197 278.365 107.64 278.39 107.098 278.261C106.556 278.133 106.08 277.882 105.668 277.507C105.253 277.124 104.957 276.646 104.78 276.073C104.606 275.508 104.584 274.959 104.714 274.426C104.843 273.884 105.094 273.407 105.469 272.995C105.844 272.583 106.317 272.289 106.89 272.111C107.455 271.937 108.008 271.913 108.55 272.042C109.098 272.159 109.577 272.405 109.989 272.78C110.401 273.155 110.694 273.625 110.869 274.189C111.046 274.762 111.072 275.324 110.946 275.874C110.818 276.415 110.562 276.894 110.179 277.308C109.805 277.72 109.335 278.013 108.77 278.188ZM108.44 277.12C108.808 277.006 109.109 276.819 109.342 276.558C109.575 276.298 109.728 275.995 109.801 275.65C109.871 275.296 109.846 274.927 109.727 274.542C109.611 274.166 109.421 273.857 109.158 273.616C108.903 273.372 108.607 273.212 108.27 273.137C107.939 273.051 107.589 273.065 107.221 273.179C106.852 273.293 106.552 273.481 106.318 273.741C106.083 273.993 105.928 274.292 105.856 274.637C105.783 274.983 105.805 275.343 105.922 275.72C106.041 276.105 106.229 276.423 106.486 276.675C106.741 276.919 107.038 277.083 107.378 277.166C107.718 277.249 108.072 277.234 108.44 277.12ZM115.404 276.135C114.929 276.282 114.467 276.309 114.016 276.215C113.572 276.11 113.183 275.899 112.852 275.58C112.52 275.261 112.275 274.848 112.118 274.341L111.07 270.953L112.175 270.611L113.208 273.95C113.307 274.269 113.446 274.531 113.626 274.735C113.811 274.929 114.029 275.054 114.28 275.111C114.531 275.168 114.8 275.152 115.086 275.064C115.52 274.929 115.818 274.689 115.98 274.343C116.139 273.989 116.144 273.57 115.995 273.088L114.961 269.749L116.066 269.407L117.115 272.795C117.272 273.302 117.303 273.781 117.209 274.232C117.116 274.682 116.915 275.076 116.607 275.414C116.304 275.74 115.903 275.981 115.404 276.135ZM122.563 276.597C121.966 276.782 121.4 276.836 120.865 276.759C120.338 276.68 119.874 276.483 119.471 276.168L119.959 275.224C120.29 275.453 120.644 275.595 121.019 275.649C121.397 275.711 121.811 275.673 122.261 275.534C122.859 275.349 123.28 275.044 123.525 274.618C123.78 274.198 123.826 273.722 123.661 273.19L123.213 271.742L123.003 270.368L122.404 269.127L121.929 267.593L123.034 267.251L124.766 272.849C124.938 273.405 124.958 273.933 124.825 274.431C124.701 274.927 124.442 275.366 124.049 275.747C123.664 276.126 123.169 276.41 122.563 276.597ZM121.739 273.933C121.207 274.098 120.689 274.119 120.185 273.997C119.689 273.872 119.25 273.627 118.868 273.261C118.483 272.887 118.205 272.422 118.032 271.865C117.86 271.309 117.83 270.776 117.941 270.266C118.05 269.748 118.274 269.298 118.613 268.915C118.957 268.521 119.395 268.242 119.927 268.078C120.386 267.936 120.819 267.901 121.226 267.972C121.634 268.043 121.991 268.21 122.296 268.475C122.608 268.728 122.839 269.069 122.99 269.498L123.468 271.044C123.575 271.477 123.573 271.891 123.462 272.284C123.356 272.666 123.155 273.002 122.859 273.291C122.562 273.58 122.189 273.794 121.739 273.933ZM121.637 272.821C121.997 272.71 122.288 272.535 122.51 272.296C122.74 272.054 122.886 271.771 122.947 271.448C123.006 271.116 122.977 270.761 122.861 270.385C122.744 270.008 122.565 269.705 122.324 269.475C122.088 269.234 121.811 269.078 121.492 269.006C121.172 268.926 120.827 268.943 120.459 269.057C120.091 269.17 119.793 269.352 119.565 269.602C119.335 269.844 119.182 270.133 119.107 270.47C119.038 270.796 119.06 271.144 119.174 271.512C119.288 271.88 119.467 272.184 119.711 272.422C119.963 272.658 120.254 272.814 120.583 272.892C120.918 272.959 121.269 272.935 121.637 272.821ZM130.585 271.304L129.533 267.904C129.396 267.462 129.144 267.14 128.777 266.94C128.41 266.74 128.006 266.708 127.564 266.845C127.269 266.936 127.028 267.082 126.839 267.284C126.65 267.486 126.526 267.722 126.466 267.991C126.406 268.261 126.422 268.543 126.513 268.838L125.979 268.721C125.842 268.279 125.819 267.855 125.909 267.451C125.999 267.047 126.189 266.692 126.481 266.386C126.769 266.073 127.134 265.848 127.576 265.711C128.018 265.574 128.437 265.552 128.834 265.645C129.238 265.735 129.593 265.925 129.898 266.217C130.204 266.508 130.427 266.882 130.569 267.341L131.689 270.962L130.585 271.304ZM126.46 272.58L123.748 263.815L124.853 263.473L127.565 272.238L126.46 272.58ZM134.009 270.244L131.45 261.97L132.554 261.629L135.114 269.902L134.009 270.244ZM131.081 265.864L130.769 264.858L134.746 263.627L135.058 264.634L131.081 265.864ZM140.186 268.333L138.382 262.502L139.487 262.16L141.291 267.991L140.186 268.333ZM144.127 267.114L143.037 263.591C142.902 263.157 142.662 262.859 142.316 262.697C141.976 262.525 141.605 262.5 141.204 262.624C140.934 262.708 140.71 262.84 140.533 263.02C140.356 263.201 140.233 263.413 140.166 263.659C140.098 263.904 140.109 264.169 140.197 264.456L139.675 264.375C139.538 263.934 139.513 263.52 139.6 263.134C139.695 262.746 139.883 262.41 140.162 262.126C140.44 261.834 140.787 261.624 141.204 261.494C141.614 261.368 142.01 261.344 142.393 261.423C142.784 261.499 143.124 261.672 143.414 261.941C143.712 262.207 143.93 262.566 144.069 263.016L145.232 266.772L144.127 267.114ZM148.067 265.895L146.977 262.372C146.843 261.938 146.603 261.64 146.257 261.478C145.916 261.305 145.55 261.28 145.157 261.401C144.887 261.485 144.659 261.618 144.474 261.801C144.296 261.982 144.174 262.194 144.106 262.439C144.039 262.685 144.049 262.95 144.138 263.237L143.443 263.209C143.329 262.752 143.328 262.33 143.442 261.945C143.562 261.55 143.766 261.209 144.054 260.922C144.339 260.628 144.687 260.417 145.096 260.29C145.521 260.159 145.93 260.131 146.321 260.207C146.712 260.284 147.057 260.455 147.354 260.722C147.66 260.986 147.884 261.347 148.026 261.805L149.184 265.549L148.067 265.895ZM152.618 264.541L148.27 259.443L149.497 259.063L152.8 263.085L152.407 263.207L152.959 257.992L154.187 257.612L153.281 264.335L152.618 264.541ZM151.689 267.451L152.318 263.396L153.281 264.335L152.917 267.071L151.689 267.451ZM158.669 262.749C158.342 262.85 158.018 262.906 157.698 262.915C157.384 262.913 157.08 262.873 156.786 262.793C156.49 262.706 156.218 262.579 155.969 262.414L156.461 261.482C156.755 261.678 157.061 261.798 157.38 261.843C157.696 261.88 158.026 261.845 158.37 261.739C158.714 261.632 158.962 261.493 159.115 261.32C159.265 261.139 159.307 260.942 159.241 260.729C159.175 260.516 159.047 260.377 158.856 260.31C158.671 260.233 158.448 260.194 158.188 260.194C157.925 260.186 157.648 260.187 157.355 260.196C157.068 260.196 156.786 260.171 156.511 260.121C156.236 260.072 155.987 259.965 155.766 259.8C155.553 259.633 155.392 259.373 155.283 259.022C155.174 258.67 155.166 258.34 155.26 258.033C155.351 257.718 155.526 257.444 155.786 257.212C156.054 256.976 156.404 256.792 156.838 256.657C157.296 256.516 157.727 256.472 158.129 256.527C158.538 256.571 158.906 256.717 159.234 256.965L158.742 257.898C158.512 257.735 158.257 257.635 157.976 257.596C157.703 257.555 157.416 257.582 157.113 257.675C156.794 257.774 156.566 257.907 156.429 258.075C156.299 258.232 156.264 258.409 156.324 258.605C156.385 258.802 156.506 258.93 156.686 258.991C156.866 259.052 157.086 259.082 157.346 259.083C157.615 259.08 157.892 259.08 158.18 259.08C158.464 259.073 158.746 259.098 159.023 259.156C159.301 259.213 159.548 259.33 159.764 259.505C159.988 259.678 160.155 259.944 160.267 260.304C160.436 260.853 160.374 261.347 160.08 261.788C159.794 262.226 159.324 262.546 158.669 262.749ZM164.755 260.866C164.174 261.046 163.61 261.077 163.062 260.959C162.512 260.834 162.031 260.583 161.619 260.209C161.207 259.834 160.912 259.356 160.732 258.775C160.555 258.202 160.526 257.646 160.646 257.107C160.774 256.565 161.023 256.093 161.392 255.692C161.767 255.28 162.236 254.987 162.801 254.812C163.341 254.645 163.854 254.621 164.339 254.74C164.832 254.856 165.261 255.096 165.624 255.459C165.996 255.819 166.266 256.273 166.436 256.822C166.461 256.904 166.485 256.995 166.507 257.096C166.527 257.188 166.543 257.3 166.557 257.43L161.634 258.953L161.349 258.032L165.683 256.692L165.388 257.173C165.266 256.78 165.094 256.47 164.871 256.243C164.646 256.008 164.384 255.856 164.085 255.787C163.783 255.71 163.452 255.727 163.092 255.839C162.715 255.955 162.409 256.14 162.173 256.392C161.938 256.644 161.788 256.942 161.723 257.285C161.659 257.627 161.689 257.999 161.813 258.4C161.94 258.809 162.133 259.144 162.393 259.404C162.65 259.657 162.957 259.822 163.313 259.9C163.666 259.97 164.039 259.944 164.432 259.823C164.759 259.721 165.04 259.572 165.275 259.373C165.518 259.173 165.702 258.927 165.827 258.638L166.764 259.142C166.587 259.555 166.32 259.911 165.964 260.209C165.616 260.505 165.213 260.724 164.755 260.866ZM168.598 259.543L165.886 250.778L166.991 250.436L169.702 259.201L168.598 259.543ZM172.154 258.442L170.08 251.74C169.946 251.306 169.923 250.9 170.013 250.523C170.1 250.137 170.278 249.8 170.547 249.51C170.824 249.218 171.184 249.004 171.626 248.867C171.961 248.763 172.269 248.731 172.55 248.769C172.831 248.808 173.108 248.906 173.381 249.064L172.877 250C172.736 249.918 172.59 249.869 172.442 249.852C172.29 249.827 172.121 249.844 171.932 249.902C171.581 250.011 171.338 250.198 171.205 250.464C171.08 250.726 171.073 251.038 171.185 251.398L173.258 258.1L172.154 258.442ZM169.225 254.062L168.913 253.056L173.308 251.696L173.619 252.703L169.225 254.062ZM100.452 297.51C99.9205 297.674 99.3972 297.693 98.8824 297.565C98.3651 297.429 97.9087 297.171 97.5132 296.792C97.1259 296.409 96.8436 295.932 96.6664 295.359C96.4891 294.786 96.4524 294.232 96.5561 293.698C96.668 293.161 96.8949 292.692 97.2369 292.29C97.5871 291.886 98.0323 291.6 98.5724 291.433C99.0143 291.297 99.4363 291.269 99.8382 291.351C100.246 291.422 100.607 291.589 100.921 291.85C101.232 292.103 101.466 292.439 101.622 292.857L102.165 294.612C102.27 295.037 102.267 295.446 102.155 295.84C102.052 296.23 101.853 296.574 101.56 296.871C101.272 297.158 100.902 297.371 100.452 297.51ZM100.314 296.409C100.862 296.24 101.247 295.919 101.469 295.447C101.688 294.966 101.707 294.436 101.527 293.855C101.403 293.454 101.218 293.13 100.971 292.884C100.73 292.626 100.445 292.459 100.117 292.381C99.7852 292.296 99.4354 292.31 99.0671 292.424C98.6988 292.538 98.3981 292.725 98.1648 292.985C97.9397 293.243 97.7922 293.549 97.7222 293.902C97.6579 294.245 97.6852 294.609 97.8042 294.993C97.9258 295.386 98.1111 295.71 98.3603 295.965C98.6151 296.209 98.9124 296.372 99.252 296.455C99.5916 296.539 99.9455 296.523 100.314 296.409ZM102.354 296.787L101.868 295.216L101.636 293.727L100.99 292.38L100.55 290.956L101.667 290.61L103.471 296.441L102.354 296.787ZM109.204 294.667L108.152 291.267C108.015 290.825 107.764 290.504 107.397 290.304C107.03 290.103 106.625 290.072 106.183 290.208C105.889 290.299 105.647 290.446 105.459 290.648C105.27 290.85 105.146 291.085 105.086 291.355C105.026 291.625 105.041 291.907 105.132 292.201L104.598 292.084C104.462 291.642 104.438 291.219 104.528 290.815C104.618 290.41 104.809 290.055 105.1 289.75C105.389 289.436 105.754 289.211 106.196 289.075C106.638 288.938 107.061 288.928 107.465 289.045C107.877 289.16 108.237 289.367 108.544 289.666C108.85 289.957 109.064 290.303 109.189 290.704L110.309 294.326L109.204 294.667ZM105.08 295.944L103.275 290.113L104.38 289.771L106.184 295.602L105.08 295.944ZM117.097 292.36C116.516 292.54 115.952 292.571 115.404 292.453C114.854 292.328 114.373 292.077 113.961 291.703C113.549 291.328 113.253 290.85 113.074 290.269C112.896 289.696 112.868 289.14 112.988 288.601C113.116 288.059 113.365 287.587 113.734 287.186C114.109 286.774 114.578 286.481 115.143 286.306C115.683 286.139 116.196 286.115 116.681 286.234C117.174 286.35 117.603 286.59 117.966 286.953C118.338 287.313 118.608 287.767 118.778 288.316C118.803 288.398 118.827 288.489 118.849 288.59C118.869 288.682 118.885 288.794 118.899 288.924L113.976 290.447L113.691 289.526L118.025 288.186L117.73 288.667C117.608 288.274 117.436 287.964 117.213 287.737C116.988 287.502 116.726 287.35 116.427 287.281C116.125 287.204 115.794 287.221 115.434 287.333C115.057 287.449 114.751 287.634 114.515 287.886C114.28 288.138 114.13 288.436 114.065 288.778C114.001 289.121 114.031 289.493 114.155 289.894C114.281 290.303 114.475 290.638 114.735 290.898C114.992 291.15 115.299 291.316 115.655 291.394C116.008 291.464 116.381 291.438 116.774 291.316C117.101 291.215 117.382 291.066 117.617 290.867C117.86 290.667 118.044 290.421 118.169 290.131L119.105 290.635C118.929 291.049 118.662 291.405 118.306 291.703C117.958 291.999 117.555 292.218 117.097 292.36ZM120.94 291.036L118.228 282.272L119.333 281.93L122.044 290.695L120.94 291.036ZM126.399 289.482C125.818 289.661 125.254 289.693 124.707 289.575C124.157 289.449 123.676 289.199 123.264 288.824C122.852 288.45 122.556 287.972 122.376 287.391C122.199 286.818 122.171 286.262 122.291 285.722C122.419 285.18 122.668 284.709 123.037 284.308C123.411 283.896 123.881 283.603 124.446 283.428C124.986 283.261 125.499 283.237 125.984 283.356C126.477 283.472 126.905 283.712 127.269 284.075C127.64 284.435 127.911 284.889 128.08 285.437C128.106 285.519 128.13 285.611 128.152 285.711C128.171 285.804 128.188 285.915 128.201 286.046L123.279 287.569L122.994 286.648L127.327 285.307L127.032 285.789C126.911 285.396 126.739 285.086 126.516 284.859C126.291 284.624 126.029 284.472 125.729 284.403C125.427 284.326 125.097 284.343 124.736 284.454C124.36 284.571 124.054 284.755 123.818 285.008C123.582 285.26 123.432 285.557 123.368 285.9C123.304 286.243 123.333 286.615 123.457 287.016C123.584 287.425 123.777 287.76 124.037 288.02C124.295 288.272 124.601 288.437 124.957 288.516C125.311 288.586 125.684 288.56 126.077 288.438C126.404 288.337 126.685 288.187 126.92 287.989C127.162 287.788 127.347 287.543 127.472 287.253L128.408 287.757C128.231 288.171 127.965 288.527 127.609 288.825C127.261 289.121 126.858 289.34 126.399 289.482ZM132.944 287.457C132.371 287.634 131.81 287.66 131.26 287.534C130.718 287.406 130.241 287.154 129.829 286.78C129.423 286.394 129.132 285.919 128.958 285.354C128.78 284.781 128.752 284.225 128.872 283.686C129 283.144 129.253 282.671 129.63 282.268C130.013 281.853 130.491 281.558 131.064 281.38C131.514 281.241 131.958 281.198 132.396 281.251C132.831 281.295 133.237 281.434 133.614 281.667L133.106 282.632C132.86 282.475 132.589 282.383 132.295 282.358C132.005 282.322 131.705 282.352 131.394 282.448C131.026 282.562 130.725 282.749 130.492 283.01C130.256 283.262 130.102 283.561 130.03 283.906C129.957 284.252 129.98 284.616 130.099 285.001C130.218 285.386 130.405 285.7 130.66 285.944C130.915 286.188 131.212 286.352 131.552 286.435C131.891 286.518 132.245 286.503 132.614 286.389C132.925 286.293 133.19 286.152 133.411 285.967C133.638 285.772 133.812 285.538 133.934 285.267L134.887 285.78C134.713 286.174 134.456 286.518 134.116 286.812C133.785 287.102 133.394 287.317 132.944 287.457ZM137.072 286.045L134.512 277.771L135.617 277.429L138.177 285.703L137.072 286.045ZM134.143 281.665L133.832 280.658L137.809 279.428L138.121 280.434L134.143 281.665ZM140.696 284.924L138.892 279.093L139.996 278.751L141.801 284.582L140.696 284.924ZM140.771 281.255L140.297 281.2C140.066 280.456 140.055 279.809 140.262 279.261C140.469 278.713 140.895 278.338 141.542 278.138C141.837 278.047 142.119 278.018 142.389 278.051C142.657 278.076 142.93 278.175 143.208 278.349L142.715 279.322C142.552 279.229 142.388 279.177 142.223 279.165C142.058 279.153 141.877 279.178 141.681 279.239C141.272 279.365 140.976 279.6 140.796 279.943C140.615 280.286 140.607 280.723 140.771 281.255ZM145.635 283.396L143.831 277.565L144.936 277.223L146.74 283.054L145.635 283.396ZM144.023 276.228C143.818 276.291 143.63 276.277 143.458 276.187C143.284 276.088 143.166 275.937 143.103 275.732C143.042 275.536 143.057 275.352 143.147 275.18C143.235 275.001 143.381 274.879 143.586 274.816C143.79 274.753 143.98 274.77 144.154 274.869C144.325 274.959 144.441 275.103 144.502 275.299C144.565 275.504 144.553 275.696 144.465 275.875C144.375 276.047 144.227 276.164 144.023 276.228ZM151.07 281.849C150.497 282.026 149.935 282.052 149.385 281.926C148.844 281.798 148.367 281.546 147.955 281.171C147.549 280.786 147.258 280.311 147.083 279.746C146.906 279.173 146.878 278.617 146.998 278.078C147.126 277.536 147.379 277.063 147.756 276.66C148.139 276.245 148.617 275.949 149.19 275.772C149.64 275.633 150.084 275.59 150.522 275.642C150.957 275.687 151.363 275.826 151.74 276.059L151.231 277.024C150.985 276.866 150.715 276.775 150.42 276.75C150.131 276.714 149.831 276.744 149.52 276.84C149.152 276.954 148.851 277.141 148.618 277.402C148.382 277.654 148.228 277.953 148.155 278.298C148.083 278.643 148.106 279.008 148.225 279.393C148.344 279.778 148.531 280.092 148.786 280.336C149.041 280.58 149.338 280.743 149.678 280.827C150.017 280.91 150.371 280.895 150.739 280.781C151.05 280.684 151.316 280.544 151.537 280.359C151.763 280.163 151.938 279.93 152.06 279.659L153.012 280.171C152.839 280.566 152.582 280.91 152.242 281.203C151.911 281.494 151.52 281.709 151.07 281.849ZM158.819 279.451C158.492 279.552 158.168 279.608 157.848 279.617C157.534 279.615 157.23 279.575 156.936 279.495C156.64 279.408 156.368 279.281 156.119 279.116L156.611 278.184C156.905 278.38 157.211 278.5 157.53 278.545C157.846 278.582 158.176 278.547 158.52 278.441C158.864 278.334 159.112 278.195 159.265 278.022C159.415 277.841 159.457 277.644 159.391 277.431C159.325 277.218 159.197 277.079 159.006 277.012C158.821 276.935 158.598 276.896 158.338 276.896C158.075 276.888 157.798 276.889 157.505 276.898C157.217 276.898 156.936 276.873 156.661 276.823C156.386 276.774 156.137 276.667 155.916 276.502C155.703 276.335 155.542 276.075 155.433 275.724C155.324 275.372 155.316 275.042 155.41 274.735C155.5 274.42 155.676 274.146 155.936 273.914C156.203 273.678 156.554 273.493 156.988 273.359C157.446 273.217 157.877 273.174 158.279 273.229C158.687 273.273 159.056 273.419 159.383 273.667L158.892 274.6C158.662 274.437 158.407 274.337 158.126 274.298C157.853 274.257 157.565 274.284 157.263 274.377C156.943 274.476 156.716 274.609 156.579 274.777C156.449 274.934 156.414 275.111 156.474 275.307C156.535 275.504 156.656 275.632 156.836 275.693C157.016 275.754 157.236 275.784 157.496 275.785C157.765 275.782 158.042 275.782 158.33 275.782C158.614 275.775 158.895 275.8 159.173 275.858C159.451 275.915 159.698 276.031 159.914 276.207C160.137 276.38 160.305 276.646 160.417 277.006C160.586 277.555 160.524 278.049 160.23 278.49C159.944 278.928 159.474 279.248 158.819 279.451ZM164.868 277.579C164.295 277.757 163.734 277.782 163.184 277.657C162.642 277.528 162.165 277.277 161.753 276.902C161.347 276.517 161.056 276.042 160.882 275.477C160.704 274.904 160.676 274.348 160.796 273.809C160.924 273.267 161.177 272.794 161.554 272.39C161.937 271.976 162.415 271.68 162.988 271.503C163.438 271.364 163.882 271.32 164.32 271.373C164.755 271.418 165.161 271.557 165.538 271.79L165.029 272.754C164.784 272.597 164.513 272.506 164.218 272.481C163.929 272.445 163.629 272.475 163.318 272.571C162.95 272.685 162.649 272.872 162.416 273.133C162.18 273.385 162.026 273.684 161.954 274.029C161.881 274.374 161.904 274.739 162.023 275.124C162.142 275.508 162.329 275.823 162.584 276.067C162.839 276.311 163.136 276.474 163.476 276.557C163.815 276.641 164.169 276.625 164.537 276.511C164.848 276.415 165.114 276.275 165.335 276.09C165.562 275.894 165.736 275.661 165.858 275.39L166.811 275.902C166.637 276.297 166.38 276.641 166.04 276.934C165.709 277.225 165.318 277.44 164.868 277.579ZM170.754 275.758C170.181 275.935 169.624 275.96 169.082 275.832C168.54 275.703 168.063 275.452 167.651 275.077C167.237 274.694 166.941 274.216 166.764 273.643C166.589 273.079 166.567 272.53 166.698 271.996C166.826 271.454 167.078 270.977 167.453 270.565C167.827 270.154 168.301 269.859 168.874 269.682C169.439 269.507 169.992 269.484 170.534 269.612C171.081 269.73 171.561 269.976 171.973 270.351C172.385 270.725 172.678 271.195 172.853 271.76C173.03 272.332 173.056 272.894 172.93 273.444C172.802 273.986 172.546 274.464 172.163 274.878C171.788 275.29 171.319 275.583 170.754 275.758ZM170.424 274.69C170.792 274.576 171.093 274.389 171.326 274.129C171.559 273.868 171.712 273.565 171.785 273.22C171.855 272.867 171.83 272.497 171.711 272.113C171.595 271.736 171.405 271.427 171.142 271.186C170.887 270.942 170.591 270.783 170.254 270.707C169.922 270.622 169.573 270.636 169.204 270.75C168.836 270.864 168.535 271.051 168.302 271.311C168.066 271.564 167.912 271.862 167.84 272.208C167.767 272.553 167.789 272.914 167.906 273.29C168.025 273.675 168.213 273.993 168.47 274.245C168.725 274.489 169.022 274.653 169.362 274.736C169.701 274.82 170.055 274.804 170.424 274.69ZM177.707 273.607C177.134 273.784 176.577 273.809 176.035 273.68C175.493 273.552 175.016 273.301 174.604 272.926C174.19 272.543 173.894 272.065 173.717 271.492C173.542 270.928 173.52 270.378 173.651 269.845C173.779 269.303 174.031 268.826 174.406 268.414C174.78 268.002 175.254 267.708 175.827 267.53C176.392 267.356 176.945 267.333 177.487 267.461C178.034 267.578 178.514 267.824 178.926 268.199C179.338 268.574 179.631 269.044 179.806 269.608C179.983 270.181 180.009 270.743 179.883 271.293C179.755 271.835 179.499 272.313 179.116 272.727C178.741 273.139 178.272 273.432 177.707 273.607ZM177.377 272.539C177.745 272.425 178.046 272.238 178.279 271.977C178.512 271.717 178.665 271.414 178.738 271.069C178.808 270.715 178.783 270.346 178.664 269.962C178.548 269.585 178.358 269.276 178.095 269.035C177.84 268.791 177.544 268.631 177.207 268.556C176.875 268.47 176.526 268.485 176.157 268.598C175.789 268.712 175.488 268.9 175.255 269.16C175.019 269.412 174.865 269.711 174.793 270.056C174.72 270.402 174.742 270.763 174.859 271.139C174.978 271.524 175.166 271.842 175.423 272.094C175.678 272.338 175.975 272.502 176.315 272.585C176.654 272.668 177.008 272.653 177.377 272.539ZM182.675 271.935L180.115 263.662L181.219 263.32L183.779 271.594L182.675 271.935ZM179.746 267.555L179.434 266.549L183.411 265.318L183.723 266.325L179.746 267.555ZM188.857 270.157C188.276 270.337 187.711 270.368 187.164 270.251C186.614 270.125 186.133 269.875 185.721 269.5C185.309 269.125 185.013 268.647 184.834 268.066C184.656 267.493 184.628 266.937 184.748 266.398C184.876 265.856 185.125 265.385 185.494 264.983C185.869 264.572 186.338 264.278 186.903 264.104C187.443 263.936 187.956 263.912 188.441 264.031C188.934 264.148 189.363 264.387 189.726 264.75C190.097 265.11 190.368 265.565 190.538 266.113C190.563 266.195 190.587 266.286 190.609 266.387C190.629 266.479 190.645 266.591 190.659 266.721L185.736 268.244L185.451 267.324L189.784 265.983L189.49 266.464C189.368 266.071 189.196 265.761 188.973 265.534C188.748 265.299 188.486 265.147 188.186 265.078C187.885 265.001 187.554 265.019 187.194 265.13C186.817 265.246 186.511 265.431 186.275 265.683C186.039 265.935 185.889 266.233 185.825 266.576C185.761 266.918 185.791 267.29 185.915 267.691C186.041 268.1 186.235 268.435 186.494 268.696C186.752 268.948 187.058 269.113 187.414 269.191C187.768 269.261 188.141 269.235 188.534 269.114C188.861 269.012 189.142 268.863 189.377 268.665C189.62 268.464 189.804 268.219 189.929 267.929L190.865 268.433C190.688 268.846 190.422 269.202 190.066 269.501C189.718 269.797 189.315 270.015 188.857 270.157ZM192.699 268.834L190.895 263.003L192 262.661L193.804 268.492L192.699 268.834ZM192.775 265.165L192.301 265.11C192.07 264.365 192.058 263.719 192.265 263.171C192.472 262.622 192.899 262.248 193.546 262.048C193.84 261.957 194.123 261.928 194.393 261.961C194.661 261.986 194.934 262.085 195.212 262.259L194.719 263.232C194.556 263.139 194.392 263.087 194.227 263.075C194.062 263.063 193.881 263.088 193.684 263.149C193.275 263.275 192.98 263.51 192.799 263.853C192.618 264.196 192.61 264.633 192.775 265.165Z" fill="#B9B9B9"/>
<path d="M159.085 63.9291L161.617 72.1128" stroke="#E4E4E4" stroke-width="1.60623" stroke-linecap="round" stroke-linejoin="round"/>
<path d="M156.259 69.287L164.443 66.7549" stroke="#E4E4E4" stroke-width="1.60623" stroke-linecap="round" stroke-linejoin="round"/>
</g>
<mask id="mask6_267_607" style="mask-type:luminance" maskUnits="userSpaceOnUse" x="212" y="65" width="39" height="39">
<path d="M251 65H212V104H251V65Z" fill="white"/>
</mask>
<g mask="url(#mask6_267_607)">
<g opacity="0.7">
<mask id="mask7_267_607" style="mask-type:luminance" maskUnits="userSpaceOnUse" x="212" y="65" width="39" height="39">
<path d="M251 65H212V104H251V65Z" fill="white"/>
</mask>
<g mask="url(#mask7_267_607)">
<path d="M248.654 84.5C248.658 84.9999 248.506 85.4884 248.219 85.8979C247.932 86.3074 247.525 86.6175 247.054 86.7852L237.32 90.3196L233.785 100.054C233.612 100.521 233.3 100.923 232.892 101.207C232.483 101.491 231.998 101.644 231.5 101.644C231.002 101.644 230.517 101.491 230.108 101.207C229.7 100.923 229.388 100.521 229.215 100.054L225.68 90.3196L215.946 86.7852C215.479 86.612 215.077 86.3003 214.793 85.8918C214.509 85.4833 214.356 84.9976 214.356 84.5C214.356 84.0024 214.509 83.5168 214.793 83.1083C215.077 82.6998 215.479 82.388 215.946 82.2149L225.68 78.6805L229.215 68.9457C229.388 68.4792 229.7 68.0769 230.108 67.7928C230.517 67.5087 231.002 67.3564 231.5 67.3564C231.998 67.3564 232.483 67.5087 232.892 67.7928C233.3 68.0769 233.612 68.4792 233.785 68.9457L237.32 78.6805L247.054 82.2149C247.525 82.3825 247.932 82.6926 248.219 83.1021C248.506 83.5116 248.658 84.0002 248.654 84.5Z" fill="#FFAA4C"/>
</g>
</g>
</g>
<mask id="mask8_267_607" style="mask-type:luminance" maskUnits="userSpaceOnUse" x="245" y="37" width="25" height="25">
<path d="M270 37H245V62H270V37Z" fill="white"/>
</mask>
<g mask="url(#mask8_267_607)">
<g opacity="0.7">
<path d="M268.496 49.5C268.499 49.8204 268.401 50.1336 268.217 50.3961C268.034 50.6586 267.773 50.8573 267.471 50.9648L261.231 53.2304L258.965 59.4707C258.854 59.7697 258.654 60.0276 258.392 60.2097C258.131 60.3918 257.819 60.4895 257.5 60.4895C257.181 60.4895 256.87 60.3918 256.608 60.2097C256.346 60.0276 256.146 59.7697 256.035 59.4707L253.77 53.2304L247.53 50.9648C247.23 50.8538 246.973 50.654 246.79 50.3921C246.608 50.1303 246.511 49.8189 246.511 49.5C246.511 49.181 246.608 48.8697 246.79 48.6078C246.973 48.346 247.23 48.1461 247.53 48.0351L253.77 45.7695L256.035 39.5293C256.146 39.2302 256.346 38.9723 256.608 38.7902C256.87 38.6081 257.181 38.5105 257.5 38.5105C257.819 38.5105 258.131 38.6081 258.392 38.7902C258.654 38.9723 258.854 39.2302 258.965 39.5293L261.231 45.7695L267.471 48.0351C267.773 48.1426 268.034 48.3414 268.217 48.6039C268.401 48.8664 268.499 49.1796 268.496 49.5Z" fill="#FFAA4C"/>
</g>
</g>
</g>
</g>
<defs>
<clipPath id="clip0_267_607">
<rect width="733" height="362" fill="white"/>
</clipPath>
</defs>
</svg>
