<svg width="547" height="362" viewBox="0 0 547 362" fill="none" xmlns="http://www.w3.org/2000/svg">
<g clip-path="url(#clip0_274_691)">
<rect width="547" height="362" rx="30" fill="#F5F5F5"/>
<g opacity="0.7">
<path fill-rule="evenodd" clip-rule="evenodd" d="M535.688 112.62C541.108 111.244 546.603 114.581 547.883 120.024L568.549 207.931C569.63 212.527 567.348 217.253 563.077 219.265L518.293 240.366C516.587 241.169 514.688 241.474 512.816 241.245L491.055 238.581C486.864 238.068 483.446 234.977 482.516 230.858L462.291 141.292C461.097 136.005 464.332 130.73 469.585 129.396L476.856 127.551L493.566 123.31L507.955 119.658L522.345 116.006L535.688 112.62Z" fill="#A64CED"/>
<path d="M493.566 123.31C491.439 114.929 489.97 97.4608 501.11 94.6335C512.25 91.8062 519.908 107.704 522.345 116.006M493.566 123.31L507.955 119.658M493.566 123.31L476.856 127.551M522.345 116.006L535.688 112.62C541.108 111.244 546.603 114.581 547.883 120.024L568.549 207.931C569.63 212.527 567.348 217.253 563.077 219.265L518.293 240.366C516.587 241.169 514.688 241.474 512.816 241.245L491.055 238.581C486.864 238.068 483.446 234.977 482.516 230.858L462.291 141.292C461.097 136.005 464.332 130.73 469.585 129.396L476.856 127.551M522.345 116.006L507.955 119.658M507.955 119.658C503.986 106.683 492.922 81.4981 480.422 84.5591C467.923 87.62 472.837 114.496 476.856 127.551" stroke="#A64CED" stroke-width="2" stroke-linecap="round" stroke-linejoin="round"/>
<path d="M514.029 230.066L508.482 210.134M491.841 150.34L502.935 190.203" stroke="white" stroke-width="2" stroke-linecap="round" stroke-linejoin="round"/>
</g>
<g opacity="0.7">
<path fill-rule="evenodd" clip-rule="evenodd" d="M446.764 396.321C451.921 398.298 457.704 395.72 459.681 390.563L481.678 333.181C483.655 328.024 481.077 322.241 475.92 320.264L465.72 316.354L454.555 312.074L443.391 307.795L433.273 303.916L432.493 303.617C427.336 301.64 421.553 304.218 419.576 309.375L397.579 366.757C395.603 371.914 398.18 377.697 403.337 379.674L446.764 396.321Z" fill="#FFAA4C"/>
<path d="M465.72 316.354L475.92 320.264C481.077 322.241 483.655 328.024 481.678 333.181L459.681 390.563C457.704 395.72 451.921 398.298 446.764 396.321L403.337 379.674C398.18 377.697 395.603 371.914 397.579 366.757L419.576 309.375C421.553 304.218 427.336 301.64 432.493 303.617L433.273 303.916M465.72 316.354C467.697 309.109 469.085 293.795 458.823 290.501C448.561 287.208 444.259 300.658 443.391 307.795M465.72 316.354L454.555 312.074M443.391 307.795L454.555 312.074M443.391 307.795L433.273 303.916M454.555 312.074C458.455 302.161 463.954 281.641 454.753 278.864C445.552 276.087 436.599 294.408 433.273 303.916" stroke="#FFAA4C" stroke-width="2" stroke-linecap="round" stroke-linejoin="round"/>
</g>
<g opacity="0.7">
<path fill-rule="evenodd" clip-rule="evenodd" d="M111.991 381.52C107.295 384.425 101.132 382.974 98.2259 378.277L78.0005 345.585C75.0948 340.888 76.5467 334.725 81.2434 331.82L85.5063 329.182L92.8017 324.669L100.097 320.155L106.709 316.065V316.065C110.36 313.806 115.151 314.935 117.41 318.586L138.807 353.171C141.712 357.868 140.261 364.031 135.564 366.936L111.991 381.52Z" fill="#2FDBBC"/>
<path d="M85.5063 329.182L81.2434 331.82C76.5467 334.725 75.0948 340.888 78.0005 345.585L98.2259 378.277C101.132 382.974 107.295 384.425 111.991 381.52L135.564 366.936C140.261 364.031 141.712 357.868 138.807 353.171L117.41 318.586C115.151 314.935 110.36 313.806 106.709 316.065V316.065M85.5063 329.182C83.1414 324.341 80.1094 313.733 86.901 310.035C93.6925 306.338 98.5283 315.242 100.097 320.155M85.5063 329.182L92.8017 324.669M100.097 320.155L92.8017 324.669M100.097 320.155L106.709 316.065M92.8017 324.669C88.7239 318.204 82.0964 304.478 88.2095 301.287C94.3226 298.096 103.089 309.809 106.709 316.065" stroke="#2FDBBC" stroke-width="2" stroke-linecap="round" stroke-linejoin="round"/>
</g>
</g>
<defs>
<clipPath id="clip0_274_691">
<rect width="547" height="362" rx="30" fill="white"/>
</clipPath>
</defs>
</svg>
