<svg width="157" height="52" viewBox="0 0 157 52" fill="none" xmlns="http://www.w3.org/2000/svg">
<path d="M60.2756 39.7208C58.9929 39.7208 57.8336 39.4495 56.7976 38.9068C55.7616 38.3642 54.9352 37.6242 54.3186 36.6868C53.7019 35.7495 53.3689 34.7012 53.3196 33.5418V27.1778C53.3689 26.0185 53.7019 24.9825 54.3186 24.0698C54.9599 23.1325 55.7986 22.4048 56.8346 21.8868C57.8706 21.3688 59.0176 21.1098 60.2756 21.1098C61.9282 21.1098 63.4082 21.5168 64.7156 22.3308C66.0229 23.1448 67.0466 24.2548 67.7866 25.6608C68.5512 27.0668 68.9336 28.6578 68.9336 30.4338C68.9336 32.1852 68.5512 33.7638 67.7866 35.1698C67.0466 36.5758 66.0229 37.6858 64.7156 38.4998C63.4082 39.3138 61.9282 39.7208 60.2756 39.7208ZM59.4616 35.2438C60.3496 35.2438 61.1266 35.0465 61.7926 34.6518C62.4832 34.2325 63.0136 33.6652 63.3836 32.9498C63.7782 32.2098 63.9756 31.3588 63.9756 30.3968C63.9756 29.4595 63.7782 28.6332 63.3836 27.9178C63.0136 27.1778 62.4832 26.6105 61.7926 26.2158C61.1019 25.7965 60.3126 25.5868 59.4246 25.5868C58.5366 25.5868 57.7472 25.7965 57.0566 26.2158C56.3906 26.6105 55.8602 27.1778 55.4656 27.9178C55.0956 28.6332 54.9106 29.4595 54.9106 30.3968C54.9106 31.3588 55.0956 32.2098 55.4656 32.9498C55.8602 33.6652 56.4029 34.2325 57.0936 34.6518C57.7842 35.0465 58.5736 35.2438 59.4616 35.2438ZM50.3596 39.3508V12.5998H55.2066V25.8828L54.3926 30.1748L55.1696 34.5408V39.3508H50.3596ZM79.7335 39.7208C78.1549 39.7208 76.7489 39.3878 75.5155 38.7218C74.3069 38.0558 73.3572 37.1308 72.6665 35.9468C71.9759 34.7628 71.6305 33.3938 71.6305 31.8398V21.4798H76.5145V31.7288C76.5145 32.4688 76.6379 33.1102 76.8845 33.6528C77.1312 34.1708 77.5012 34.5655 77.9945 34.8368C78.4879 35.1082 79.0675 35.2438 79.7335 35.2438C80.7449 35.2438 81.5342 34.9355 82.1015 34.3188C82.6689 33.7022 82.9525 32.8388 82.9525 31.7288V21.4798H87.7995V31.8398C87.7995 33.4185 87.4542 34.7998 86.7635 35.9838C86.0975 37.1678 85.1479 38.0928 83.9145 38.7588C82.7059 39.4002 81.3122 39.7208 79.7335 39.7208ZM99.2074 39.7208C97.5547 39.7208 96.0747 39.3138 94.7674 38.4998C93.46 37.6858 92.424 36.5758 91.6594 35.1698C90.9194 33.7638 90.5494 32.1852 90.5494 30.4338C90.5494 28.6578 90.9194 27.0668 91.6594 25.6608C92.424 24.2548 93.4477 23.1448 94.7304 22.3308C96.0377 21.5168 97.53 21.1098 99.2074 21.1098C100.49 21.1098 101.637 21.3688 102.648 21.8868C103.684 22.4048 104.511 23.1325 105.127 24.0698C105.769 24.9825 106.114 26.0185 106.163 27.1778V33.5418C106.114 34.7012 105.781 35.7495 105.164 36.6868C104.548 37.6242 103.721 38.3642 102.685 38.9068C101.649 39.4495 100.49 39.7208 99.2074 39.7208ZM100.021 35.2438C100.934 35.2438 101.723 35.0465 102.389 34.6518C103.08 34.2325 103.61 33.6652 103.98 32.9498C104.375 32.2098 104.572 31.3588 104.572 30.3968C104.572 29.4595 104.375 28.6332 103.98 27.9178C103.61 27.1778 103.08 26.6105 102.389 26.2158C101.723 25.7965 100.946 25.5868 100.058 25.5868C99.1457 25.5868 98.344 25.7965 97.6534 26.2158C96.9874 26.6352 96.457 27.2025 96.0624 27.9178C95.6924 28.6332 95.5074 29.4595 95.5074 30.3968C95.5074 31.3588 95.6924 32.2098 96.0624 32.9498C96.457 33.6652 96.9997 34.2325 97.6904 34.6518C98.381 35.0465 99.158 35.2438 100.021 35.2438ZM109.123 39.3508H104.313V34.5408L105.09 30.1748L104.276 25.8828V12.5998H109.123V39.3508ZM119.553 39.7578C118.542 39.7578 117.543 39.6222 116.556 39.3508C115.594 39.0795 114.706 38.7095 113.892 38.2408C113.078 37.7475 112.375 37.1555 111.783 36.4648L114.669 33.5418C115.286 34.2325 116.001 34.7505 116.815 35.0958C117.629 35.4412 118.53 35.6138 119.516 35.6138C120.306 35.6138 120.898 35.5028 121.292 35.2808C121.712 35.0588 121.921 34.7258 121.921 34.2818C121.921 33.7885 121.699 33.4062 121.255 33.1348C120.836 32.8635 120.281 32.6415 119.59 32.4688C118.9 32.2715 118.172 32.0618 117.407 31.8398C116.667 31.5932 115.952 31.2848 115.261 30.9148C114.571 30.5202 114.003 29.9898 113.559 29.3238C113.14 28.6332 112.93 27.7452 112.93 26.6598C112.93 25.5252 113.202 24.5385 113.744 23.6998C114.312 22.8612 115.113 22.2075 116.149 21.7388C117.185 21.2702 118.406 21.0358 119.812 21.0358C121.292 21.0358 122.624 21.2948 123.808 21.8128C125.017 22.3308 126.016 23.1078 126.805 24.1438L123.882 27.0668C123.34 26.4008 122.723 25.9198 122.032 25.6238C121.366 25.3278 120.639 25.1798 119.849 25.1798C119.134 25.1798 118.579 25.2908 118.184 25.5128C117.814 25.7348 117.629 26.0432 117.629 26.4378C117.629 26.8818 117.839 27.2272 118.258 27.4738C118.702 27.7205 119.27 27.9425 119.96 28.1398C120.651 28.3125 121.366 28.5222 122.106 28.7688C122.871 28.9908 123.586 29.3115 124.252 29.7308C124.943 30.1502 125.498 30.7052 125.917 31.3958C126.361 32.0865 126.583 32.9745 126.583 34.0598C126.583 35.8112 125.954 37.2048 124.696 38.2408C123.438 39.2522 121.724 39.7578 119.553 39.7578ZM135.994 39.7578C134.982 39.7578 133.983 39.6222 132.997 39.3508C132.035 39.0795 131.147 38.7095 130.333 38.2408C129.519 37.7475 128.816 37.1555 128.224 36.4648L131.11 33.5418C131.726 34.2325 132.442 34.7505 133.256 35.0958C134.07 35.4412 134.97 35.6138 135.957 35.6138C136.746 35.6138 137.338 35.5028 137.733 35.2808C138.152 35.0588 138.362 34.7258 138.362 34.2818C138.362 33.7885 138.14 33.4062 137.696 33.1348C137.276 32.8635 136.721 32.6415 136.031 32.4688C135.34 32.2715 134.612 32.0618 133.848 31.8398C133.108 31.5932 132.392 31.2848 131.702 30.9148C131.011 30.5202 130.444 29.9898 130 29.3238C129.58 28.6332 129.371 27.7452 129.371 26.6598C129.371 25.5252 129.642 24.5385 130.185 23.6998C130.752 22.8612 131.554 22.2075 132.59 21.7388C133.626 21.2702 134.847 21.0358 136.253 21.0358C137.733 21.0358 139.065 21.2948 140.249 21.8128C141.457 22.3308 142.456 23.1078 143.246 24.1438L140.323 27.0668C139.78 26.4008 139.163 25.9198 138.473 25.6238C137.807 25.3278 137.079 25.1798 136.29 25.1798C135.574 25.1798 135.019 25.2908 134.625 25.5128C134.255 25.7348 134.07 26.0432 134.07 26.4378C134.07 26.8818 134.279 27.2272 134.699 27.4738C135.143 27.7205 135.71 27.9425 136.401 28.1398C137.091 28.3125 137.807 28.5222 138.547 28.7688C139.311 28.9908 140.027 29.3115 140.693 29.7308C141.383 30.1502 141.938 30.7052 142.358 31.3958C142.802 32.0865 143.024 32.9745 143.024 34.0598C143.024 35.8112 142.395 37.2048 141.137 38.2408C139.879 39.2522 138.164 39.7578 135.994 39.7578Z" fill="white"/>
<path opacity="0.7" d="M25.3803 26.2532L22.1351 26.297C18.2732 26.3492 15.1003 23.2608 15.0481 19.3989V19.3989C14.9959 15.5371 18.0843 12.3641 21.9462 12.3119L37.9886 12.0952" stroke="#FFAA4C" stroke-width="8.44412" stroke-linecap="round"/>
<path opacity="0.7" d="M36.5708 40.4026L20.5198 40.3594C16.6616 40.349 13.5423 37.2128 13.5527 33.3546V33.3546C13.563 29.5039 16.6873 26.3877 20.538 26.3874L25.5062 26.3869" stroke="#2FDBBC" stroke-width="8.44412" stroke-linecap="round"/>
<path opacity="0.7" d="M36.6737 40.2686L26.4257 27.8075C25.5015 26.6837 25.5608 25.047 26.5641 23.993L37.9155 12.0679" stroke="#A64CED" stroke-width="8.44412" stroke-linecap="round"/>
</svg>
