<svg width="126" height="60" viewBox="0 0 126 60" fill="none" xmlns="http://www.w3.org/2000/svg">
<g clip-path="url(#clip0_151_449)">
<path d="M21.54 59.9999C21.0106 59.916 20.4758 59.8561 19.9528 59.7418C17.5627 59.2191 15.8545 57.81 14.9609 55.5353C13.646 52.1846 13.5563 48.7436 14.7243 45.3407C15.7594 42.332 18.2726 40.5821 21.4233 40.5494C22.3917 40.526 23.3595 40.6189 24.3061 40.826C26.9068 41.438 28.5838 43.1465 29.3736 45.6696C30.3331 48.7382 30.3396 51.8525 29.2991 54.9015C28.2747 57.9026 26.1656 59.6329 22.9749 59.9106C22.8533 59.9306 22.7333 59.9601 22.6162 59.9988L21.54 59.9999ZM19.1003 50.083C19.2829 51.4812 19.3834 52.7073 19.62 53.9062C19.7929 54.7774 20.3418 55.4362 21.2602 55.6703C22.6713 56.0286 23.9193 55.2761 24.3353 53.7603C24.7502 52.2195 24.8741 50.6137 24.7005 49.0267C24.6024 48.0965 24.4072 47.1792 24.1181 46.2903C24.0013 45.8952 23.7743 45.5423 23.4642 45.2736C23.1541 45.0049 22.7738 44.8316 22.3688 44.7745C21.1057 44.5676 20.1235 45.1099 19.7432 46.4623C19.4007 47.6819 19.2894 48.9679 19.1003 50.083Z" fill="#181818"/>
<path d="M124.854 59.4564C123.039 59.4673 121.224 59.4815 119.408 59.488C117.895 59.4934 116.392 59.488 114.849 59.488V41.0775C114.966 41.0543 115.085 41.0391 115.204 41.0317C118.279 41.0317 121.354 41.0317 124.43 41.0317C124.572 41.0406 124.714 41.058 124.854 41.084V44.9976H119.804V48.3733H124.081V52.1922H119.799V55.5395H124.854V59.4564Z" fill="#181818"/>
<path d="M110.065 59.9998C109.322 59.8768 108.568 59.8038 107.842 59.6209C106.069 59.1732 104.473 58.1905 103.269 56.8042C102.065 55.4179 101.31 53.694 101.104 51.8633C100.875 49.9294 100.9 48.0085 101.684 46.2009C103.232 42.6466 106.006 40.7835 109.826 40.5679C110.997 40.5025 112.183 40.6767 113.392 40.7486V45.2437L111.801 44.9682C108.335 44.3617 106.507 46.9599 106.301 49.4797C106.218 50.5152 106.286 51.5486 106.643 52.5287C107.407 54.6444 109.379 55.814 111.652 55.4884C112.219 55.4067 112.78 55.2836 113.424 55.1617V59.5544L111.047 59.99L110.065 59.9998Z" fill="#181818"/>
<path d="M9.55727 59.9999C8.92086 59.8976 8.27904 59.8246 7.6502 59.6896C3.81985 58.8631 1.01057 55.6779 0.59134 51.7404C0.440071 50.3248 0.433588 48.919 0.76638 47.5295C1.73126 43.5005 5.16074 40.6867 9.34657 40.5658C10.52 40.532 11.6988 40.6867 12.8906 40.7564V45.2438C12.3568 45.1524 11.8349 45.0652 11.3141 44.9738C7.8382 44.3585 5.97219 46.96 5.78959 49.5778C5.71287 50.6721 5.80904 51.7556 6.23475 52.776C7.05052 54.736 8.96408 55.8054 11.138 55.4983C11.7064 55.4177 12.2682 55.2947 12.8744 55.1836V59.5752L10.5286 60.0043L9.55727 59.9999Z" fill="#181818"/>
<path d="M68.3057 32.9933L70.8719 39.3636C70.511 39.1697 70.283 39.0511 70.0604 38.928C66.7109 37.0518 63.3754 35.1668 60.0183 33.3113C59.6434 33.1124 59.2265 33.0071 58.8028 33.0042C50.6184 32.9868 42.433 32.9825 34.2464 32.9912C31.1411 32.9912 28.7186 31.0104 28.1114 27.9538C28.0429 27.5251 28.0164 27.0907 28.0325 26.6569C28.0271 19.936 28.0736 13.214 28.0098 6.49425C27.9785 3.13926 30.3264 0.781725 32.7997 0.314575C33.275 0.217105 33.7582 0.163887 34.2432 0.155591C51.9633 0.148332 69.6833 0.148332 87.4034 0.155591C90.472 0.155591 92.8815 2.07428 93.5385 5.07428C93.6588 5.69573 93.7127 6.32837 93.6995 6.9614C93.711 13.3752 93.7128 19.7883 93.7049 26.2006C93.7049 27.7872 93.4412 29.2964 92.4266 30.5912C91.1992 32.156 89.5882 32.9803 87.6271 32.9868C81.4564 33.014 75.2857 32.9966 69.115 32.9966L68.3057 32.9933ZM44.9855 17.7614C45.0362 17.8224 45.0665 17.8442 45.0773 17.8703C45.1075 17.9552 45.1302 18.0423 45.1562 18.1284C46.161 21.3952 47.4068 24.5531 49.4781 27.2982C50.0929 28.1139 50.7693 28.9262 51.5635 29.5534C52.9811 30.6717 54.5889 29.9759 54.913 28.1944C54.9486 27.9055 54.959 27.614 54.9443 27.3233C54.9443 26.0373 54.8579 24.7425 54.9724 23.4663C55.1885 21.0587 55.4565 18.65 55.826 16.2619C56.3187 13.0823 56.9162 9.92111 58.3695 6.99951C58.792 6.15015 58.6861 5.29098 58.0713 4.56249C57.423 3.78717 56.5737 3.47356 55.5592 3.71203C54.8028 3.88735 54.3609 4.40024 54.0292 5.05468C52.4484 8.17229 51.7547 11.5491 51.1929 14.9639C50.9573 16.3948 50.7899 17.8376 50.5792 19.3719C50.4895 19.1487 50.4246 19.0202 50.3868 18.8852C49.7785 16.7509 49.1594 14.6188 48.5748 12.4779C48.3144 11.5229 48.2075 10.5178 47.8866 9.58681C47.3463 8.02855 45.5948 7.70405 44.4679 8.91167C44.1903 9.21998 43.9542 9.56377 43.7656 9.93418C42.6343 12.075 41.5214 14.2267 40.4009 16.3741C39.6176 17.8746 38.8331 19.3752 38.0238 20.9182C37.978 20.8185 37.9397 20.7155 37.9093 20.61C37.0708 16.1411 36.2353 11.6717 35.4026 7.20205C35.2502 6.37991 35.18 5.50223 34.3415 5.06013C33.4069 4.56902 32.442 4.64198 31.5863 5.24307C30.7845 5.80496 30.562 6.66739 30.7154 7.60496C31.1562 10.2946 31.543 12.9952 32.0984 15.663C32.8472 19.2663 33.6975 22.85 34.5835 26.4206C34.8277 27.4006 35.274 28.3643 35.7786 29.2518C36.3102 30.1861 37.1832 30.3309 38.0303 29.6775C38.6051 29.2322 39.181 28.6975 39.543 28.0834C40.6235 26.2507 41.623 24.3668 42.6148 22.4808C43.4339 20.9324 44.1902 19.3523 44.9855 17.7614ZM90.4645 15.2982C90.431 13.9665 90.2689 12.6293 89.8064 11.3378C88.7421 8.36067 86.364 6.59225 83.4024 6.57374C80.9118 6.5585 79.0307 7.71494 77.5979 9.67501C75.2457 12.8928 74.4267 16.5211 74.968 20.4467C75.2295 22.3458 75.9524 24.0826 77.3959 25.4111C80.1706 27.9647 84.6168 27.638 87.1301 24.6761C89.4056 21.9962 90.3867 18.822 90.4645 15.2982ZM65.0524 27.1284C65.3916 27.1033 65.7341 27.1001 66.0713 27.0511C68.202 26.7364 69.7568 25.5266 70.954 23.7962C72.2818 21.8965 73.13 19.6991 73.4251 17.3944C73.7039 15.2471 73.6099 13.1476 72.847 11.1004C70.9443 5.99552 64.6709 5.14615 61.517 8.77229C58.0292 12.7828 57.0319 17.4358 58.6677 22.5178C59.624 25.4906 62.0616 27.1066 65.0524 27.1284Z" fill="#181818"/>
<path d="M36.3566 47.1199C35.9471 51.223 35.5376 55.3261 35.1249 59.4564H30.4409C31.2178 53.3214 31.9925 47.2092 32.7715 41.0655H39.0578C39.7407 44.378 40.4268 47.7079 41.1302 51.1196C41.4479 49.5428 41.7288 48.0477 42.0519 46.5624C42.4257 44.8484 42.8298 43.1421 43.2404 41.4379C43.2782 41.2811 43.4846 41.0491 43.6154 41.0481C45.6283 41.023 47.6424 41.0306 49.7277 41.0306C50.5586 47.1755 51.3787 53.3018 52.2085 59.4891H48.7682C47.2901 59.4891 47.2934 59.4891 47.1475 58.0114C46.7769 54.3918 46.403 50.7733 45.959 47.1297C45.9146 47.2658 45.8617 47.3987 45.8282 47.537C44.8975 51.3671 43.9716 55.198 43.0503 59.0295C42.966 59.3813 42.8342 59.5076 42.4798 59.4967C41.6888 59.4727 40.8958 59.4684 40.1027 59.4967C39.7115 59.5109 39.5473 59.3932 39.4544 58.9958C38.5036 55.1519 37.5279 51.3145 36.5587 47.476C36.5284 47.3573 36.4863 47.2408 36.4506 47.1243L36.3566 47.1199Z" fill="#181818"/>
<path d="M58.7704 47.0951C58.3609 51.1971 57.9525 55.2991 57.5386 59.4435H52.8601C53.0146 58.1989 53.1637 56.9673 53.3204 55.7412C53.847 51.5742 54.375 47.4072 54.9044 43.2403C54.979 42.6479 55.0643 42.0566 55.1205 41.4631C55.1497 41.1593 55.248 41.021 55.5829 41.0276C57.3993 41.0417 59.2166 41.0515 61.033 41.0221C61.4997 41.0145 61.503 41.3118 61.5624 41.5982C62.1855 44.6268 62.8057 47.6559 63.423 50.6853C63.431 50.735 63.4502 50.7822 63.4793 50.8232C63.5083 50.8642 63.5464 50.8979 63.5905 50.9216C63.7839 49.9241 63.9579 48.9223 64.1761 47.9292C64.6494 45.7753 65.1485 43.6279 65.6229 41.474C65.7007 41.119 65.8574 41.0221 66.2053 41.0265C68.0227 41.0424 69.8393 41.0424 71.6553 41.0265C72.0151 41.0265 72.1383 41.1288 72.1869 41.5023C72.9526 47.2969 73.7295 53.0896 74.5175 58.8806C74.5413 59.057 74.5434 59.2355 74.5596 59.4544H69.6909C69.2587 55.347 68.8291 51.2352 68.4019 47.119L68.3112 47.1114C67.3236 51.2243 66.3371 55.3383 65.3398 59.4904C64.2863 59.4904 63.2631 59.5056 62.242 59.4708C62.1188 59.4708 61.9395 59.2105 61.8952 59.0417C61.2793 56.6624 60.6818 54.2777 60.08 51.8951L58.8785 47.1114L58.7704 47.0951Z" fill="#181818"/>
<path d="M92.4482 59.4575H87.5168V41.0949C87.5664 41.0698 87.6191 41.0519 87.6735 41.0415C90.2062 41.0883 92.741 41.0905 95.2715 41.2081C96.4255 41.2615 97.5082 41.7134 98.486 42.3646C101.668 44.4825 101.511 49.0669 98.2018 50.9671C98.0938 51.0292 97.9857 51.0869 97.8021 51.1849C99.0986 53.9257 100.395 56.6546 101.726 59.4607C101.485 59.4738 101.316 59.4901 101.147 59.4901C99.7804 59.4901 98.4136 59.4749 97.0414 59.501C96.6427 59.5087 96.4417 59.3834 96.2699 59.0175C95.1214 56.5642 93.9469 54.1174 92.7799 51.6793C92.7073 51.5029 92.5913 51.3481 92.4428 51.2295L92.4482 59.4575ZM92.4342 49.0604C93.1808 48.9014 93.8842 48.8034 94.5541 48.5965C95.224 48.3896 95.6346 47.8811 95.6746 47.158C95.7124 46.3958 95.5892 45.6618 94.9085 45.1838C94.1716 44.6666 93.318 44.6317 92.4342 44.6023V49.0604Z" fill="#181818"/>
<path d="M85.3506 48.3505C85.3506 49.5756 85.3506 50.6972 85.3506 51.8188C85.3506 51.9277 85.3387 52.03 85.3301 52.189H81.02V55.5723H86.0076C86.0343 55.7251 86.0531 55.8792 86.0637 56.034C86.0637 57.0489 86.0637 58.0627 86.0637 59.0776C86.0637 59.3291 86.0638 59.5382 85.7115 59.5371C82.5273 59.5229 79.3442 59.5208 76.161 59.5142C76.1459 59.5142 76.1308 59.4968 76.0681 59.4598V41.1113H85.9795V44.9901H81.006V48.3505H85.3506Z" fill="#181818"/>
<path d="M85.7676 15.2622C85.7298 17.4989 85.3354 19.2488 84.188 20.7275C83.7703 21.245 83.2642 21.6831 82.6936 22.0212C81.7893 22.5657 80.9238 22.3163 80.3814 21.4059C79.6088 20.1123 79.3571 18.7065 79.5062 17.1961C79.6703 15.4769 80.3349 13.8448 81.4165 12.505C81.6738 12.181 81.9771 11.897 82.3165 11.6622C83.2803 10.9958 84.2971 11.2266 84.9022 12.2317C85.5299 13.2793 85.8011 14.427 85.7676 15.2622Z" fill="#181818"/>
<path d="M68.9056 15.6586C68.8364 17.5729 68.4345 19.3882 67.1822 20.8985C66.8089 21.3376 66.3665 21.7117 65.8726 22.006C64.9574 22.5591 64.0725 22.3196 63.5031 21.406C62.6884 20.0992 62.4874 18.6379 62.6311 17.1341C62.7858 15.4848 63.419 13.918 64.4518 12.6292C64.7474 12.2438 65.1006 11.9069 65.4988 11.6306C66.4388 11.0056 67.4188 11.231 68.0066 12.1936C68.6414 13.2328 68.9544 14.4392 68.9056 15.6586Z" fill="#181818"/>
</g>
<defs>
<clipPath id="clip0_151_449">
<rect width="126" height="60" fill="white"/>
</clipPath>
</defs>
</svg>
