<svg width="277" height="40" viewBox="0 0 277 40" fill="none" xmlns="http://www.w3.org/2000/svg">
<g clip-path="url(#clip0_151_495)">
<path d="M32.5 39.9863L30.2579 37.5424C31.3164 36.5616 32.4347 35.589 33.4878 34.5287C36.919 31.0794 40.3447 27.6274 43.7297 24.1178C45.7732 22.0054 46.0208 19.1068 44.4644 16.8712C42.3284 13.8027 38.3584 13.4958 35.6401 16.2273C31.4098 20.4794 27.1922 24.7452 22.9873 29.0246L20.2418 31.8191L17.7603 29.1123C21.1833 25.7452 24.688 22.315 28.1736 18.8657C29.9178 17.1397 31.6075 15.3561 33.3599 13.6383C37.0496 10.0164 42.6113 9.97803 46.1786 13.5178C49.7459 17.0575 49.9173 22.7205 46.3038 26.4164C41.8114 30.9972 37.1639 35.4164 32.5 39.9863Z" fill="#181818"/>
<path d="M18.1874 2.60275C13.7739 6.98631 9.27331 11.348 4.85437 15.8164C1.97281 18.7343 2.69388 23.1863 6.23121 25.0439C8.32912 26.1397 11.0447 25.6384 12.9467 23.7205C17.8772 18.7452 22.7968 13.7607 27.7055 8.76713C27.8633 8.60549 28.0293 8.4548 28.2497 8.24658L30.7639 10.9863C26.9137 14.7589 22.9192 18.6576 18.9357 22.5863C17.6377 23.8603 16.3997 25.1973 15.0827 26.4521C11.3168 30.0329 5.79585 29.9945 2.26124 26.3918C0.576133 24.6599 -0.363593 22.3294 -0.354426 19.905C-0.345259 17.4805 0.612066 15.1573 2.31022 13.4384C6.7346 8.92605 11.2569 4.51235 15.88 -0.0876465L18.1874 2.60275Z" fill="#181818"/>
<path d="M96.109 27.7288L99.045 31.737C96.7974 31.9096 94.9961 32.337 93.9839 30.2548C93.6139 29.4932 93.0833 29.7589 92.5037 29.9808C88.0684 31.5781 83.2522 30.0438 80.8659 26.2931C77.6442 21.2384 79.1924 13.6658 84.0631 11C87.516 9.11234 91.0588 9.16988 94.4029 11.2165C97.845 13.326 98.9443 16.7315 98.8953 20.5945C98.8865 23.24 97.8922 25.7858 96.109 27.7288ZM94.5152 24.0137C95.4639 21.6833 95.5084 18.98 94.6533 16.6137C93.7472 14.1206 91.818 12.8356 89.252 12.7288C86.8031 12.6274 84.8086 13.6658 83.7039 15.9534C82.2617 18.9452 82.3216 21.9589 84.0386 24.8411C85.2141 26.8137 87.048 27.6685 89.3092 27.5808C91.6411 27.4959 93.437 26.4274 94.3948 24.2932C94.4368 24.201 94.4769 24.1078 94.5152 24.0137Z" fill="#181818"/>
<path d="M162.415 29.8741C161.367 29.8741 160.459 29.9508 159.572 29.8412C159.11 29.7454 158.695 29.4894 158.402 29.1179C156.894 27.2385 155.357 25.3754 154.004 23.3864C153.158 22.1426 152.176 21.9563 150.799 22.307V29.77H147.471V9.96997C150.872 10.1645 154.309 10.1097 157.656 10.6384C159.999 11.0056 161.272 13.1042 161.384 15.4303C161.52 18.2275 160.478 20.1234 158.192 21.2275C157.751 21.4412 157.302 21.633 156.734 21.8933C157.773 23.2083 158.831 24.4412 159.77 25.7645C160.679 27.0467 162.11 28.0111 162.415 29.8741ZM150.834 19.2713C152.576 19.1426 154.157 19.1207 155.705 18.8823C157.177 18.6549 158.01 17.5508 158.048 16.1426C158.086 14.7344 157.297 13.5754 155.795 13.348C154.176 13.1042 152.513 13.1617 150.834 13.0741V19.2713Z" fill="#181818"/>
<path d="M143.172 29.8767C142.179 29.9186 141.184 29.9058 140.193 29.8384C139.869 29.8028 139.463 29.3836 139.327 29.0466C138.81 27.7836 138.359 26.4932 137.951 25.1918C137.719 24.4631 137.33 24.2137 136.566 24.2329C134.389 24.2822 132.212 24.274 130.035 24.2329C129.298 24.2329 128.873 24.3945 128.647 25.1699C128.305 26.348 127.741 27.4631 127.437 28.6494C127.189 29.622 126.743 30.0192 125.749 29.8904C125.058 29.8498 124.365 29.8498 123.673 29.8904C123.839 29.1206 123.894 28.4904 124.106 27.9206C126.182 22.3343 128.302 16.7617 130.364 11.1699C130.636 10.4055 131.006 10.074 131.834 10.1397C132.782 10.2383 133.737 10.2383 134.685 10.1397C135.839 9.98906 136.244 10.5507 136.59 11.5288C138.62 17.1288 140.712 22.7069 142.769 28.2987C142.931 28.8172 143.065 29.344 143.172 29.8767ZM136.568 21.2219C135.681 18.6274 134.876 16.2247 134.027 13.8247C133.926 13.5507 133.581 13.3589 133.352 13.1288C133.123 13.3617 132.808 13.5534 132.683 13.8329C132.414 14.4596 132.178 15.0997 131.975 15.7507C131.358 17.5315 130.748 19.3123 130.092 21.2302L136.568 21.2219Z" fill="#181818"/>
<path d="M238.816 29.8739C237.684 29.8739 236.737 29.9315 235.807 29.8383C235.535 29.8109 235.183 29.4027 235.061 29.0931C234.571 27.8712 234.109 26.6273 233.73 25.3726C233.488 24.5671 233.14 24.1972 232.231 24.2274C230.054 24.2986 227.878 24.2822 225.701 24.2274C224.944 24.2082 224.574 24.4274 224.34 25.178C223.859 26.7342 223.252 28.2548 222.708 29.8356H219.404C219.464 29.2973 219.568 28.7649 219.714 28.2438C221.81 22.6246 223.951 17.0109 226.011 11.3917C226.367 10.4109 226.827 10.0219 227.856 10.1315C229.151 10.2547 230.751 9.79721 231.665 10.4054C232.525 10.9863 232.686 12.6383 233.129 13.8301C234.891 18.5534 236.642 23.2803 238.383 28.0109C238.564 28.6228 238.709 29.2449 238.816 29.8739ZM225.796 21.1589H232.267C231.374 18.5616 230.55 16.126 229.687 13.7041C229.605 13.4712 229.265 13.1726 229.064 13.1863C228.928 13.2249 228.802 13.2943 228.696 13.3893C228.591 13.4842 228.508 13.6022 228.454 13.7342C227.565 16.1616 226.71 18.5917 225.796 21.1589Z" fill="#181818"/>
<path d="M59.9688 24.485L63.0789 24.1261C64.121 26.833 66.2244 27.9617 69.1005 27.1398C70.5454 26.7261 71.2583 25.7234 71.2773 24.348C71.2773 22.9097 70.3848 22.2412 69.174 21.8521C67.7971 21.4083 66.3985 21.0302 65.038 20.5398C61.8136 19.3836 60.2572 17.3343 60.5184 14.6822C60.7905 11.8192 62.717 9.99458 66.0557 9.41102C69.2502 8.86307 72.2106 9.95896 73.5711 12.3179C73.963 12.9973 74.1317 13.8055 74.45 14.6795L71.2991 14.9782C69.8488 12.5754 68.2543 11.8467 66.0475 12.5535C65.0081 12.8878 64.336 13.559 64.2135 14.6822C64.1382 15.1644 64.2349 15.6579 64.4864 16.0751C64.7379 16.4924 65.1281 16.8065 65.5877 16.9617C67.1795 17.6083 68.8175 18.1343 70.4284 18.7316C73.7779 19.9727 74.9099 21.411 74.8419 24.3096C74.7738 27.1179 73.1657 29.0357 70.012 29.9644C68.7755 30.3536 67.4692 30.4642 66.1855 30.2886C64.9018 30.1129 63.6722 29.6553 62.5836 28.948C60.9755 27.9398 60.2409 26.3781 59.9688 24.485Z" fill="#181818"/>
<path d="M198.553 14.6905L195.353 14.9645C193.971 12.5837 192.273 11.7316 190.113 12.6165C189.364 12.9234 188.654 13.8138 188.355 14.6028C187.977 15.5946 188.627 16.4768 189.579 16.9124C190.605 17.3754 191.683 17.7343 192.741 18.1206C193.557 18.4165 194.374 18.6686 195.174 18.9837C197.209 19.8248 198.787 21.0521 198.92 23.5206C199.059 26.1645 198.014 28.1097 195.699 29.3617C192.118 31.2796 186.992 30.285 185.03 27.2631C184.824 26.9636 184.651 26.642 184.515 26.3042C184.317 25.7563 184.181 25.1837 183.971 24.5015L187.168 24.1206C188.477 26.9398 190.836 28.0439 193.353 27.0987C194.635 26.6165 195.345 25.7097 195.34 24.3042C195.34 22.948 194.496 22.2604 193.326 21.8795C191.966 21.433 190.556 21.0576 189.193 20.559C185.87 19.3782 184.295 17.3124 184.567 14.6385C184.891 11.7234 186.896 9.78093 190.281 9.40285C193.138 9.08504 195.859 9.47955 197.56 12.2385C198.014 12.9371 198.197 13.7836 198.553 14.6905Z" fill="#181818"/>
<path d="M104.553 9.72876H107.842C107.842 11.0247 107.842 12.2438 107.842 13.463C107.883 16.7041 107.842 19.9507 108.011 23.1808C108.169 26.0274 109.832 27.4794 112.479 27.4192C114.928 27.3644 116.612 25.6986 116.683 22.989C116.786 19.1534 116.729 15.3178 116.74 11.4822C116.74 10.9342 116.74 10.3863 116.74 9.75615H120.022C120.087 9.84656 120.18 9.92053 120.18 9.99176C120.161 14.5096 120.343 19.0329 120.054 23.5397C119.728 28.6247 116.577 30.4274 111.927 30.326C107.056 30.2219 104.526 27.537 104.485 22.6548C104.452 18.7288 104.485 14.8 104.485 10.874C104.479 10.5069 104.523 10.1534 104.553 9.72876Z" fill="#181818"/>
<path d="M166.742 29.8001V10.1946H179.397V13.1288H170.17V18.2823H178.706V21.296H170.143V26.8412H179.503V29.8056L166.742 29.8001Z" fill="#181818"/>
<path d="M277.006 29.8385H264.317V9.94531H276.959V12.8713H267.583V18.0768H276.29V21.0905H267.604V26.759H277.011L277.006 29.8385Z" fill="#181818"/>
<path d="M207.59 22.2959V29.8082H204.167V10.3945C207.524 10.3945 210.871 10.1589 214.169 10.4658C217.031 10.7397 218.642 13.1233 218.683 16.2192C218.721 19.137 217.051 21.3096 214.204 21.8986C213.141 22.1052 212.064 22.2325 210.983 22.2795C209.911 22.3452 208.83 22.2959 207.59 22.2959ZM207.701 13.189V19.3863C209.394 19.3096 210.98 19.326 212.542 19.1397C214.248 18.937 215.173 17.8027 215.173 16.211C215.173 14.6192 214.153 13.3616 212.452 13.2192C210.887 13.0877 209.312 13.189 207.701 13.189Z" fill="#181818"/>
<path d="M259.302 15.2383C258.441 15.4837 257.566 15.6758 256.682 15.8137C256.48 15.807 256.282 15.7542 256.103 15.6593C255.923 15.5644 255.768 15.4298 255.648 15.2657C254.399 13.3479 252.606 12.526 250.429 12.6904C248.081 12.8794 246.348 14.1287 245.461 16.3808C244.405 19.0602 244.416 21.7397 245.776 24.3123C247.681 27.8931 252.851 28.4794 255.3 25.3178C256.067 24.3233 256.704 23.9671 257.844 24.3863C258.36 24.5298 258.887 24.6333 259.419 24.6959C258.5 28.3507 254.054 30.8411 249.605 30.2383C244.356 29.5287 241.001 25.4191 241.091 19.8C241.18 14.1808 244.797 10.1397 250.312 9.70134C254.249 9.39723 258.399 11.4822 259.302 15.2383Z" fill="#181818"/>
<path d="M37.0058 4.189L34.5923 6.44653C34.3719 6.24379 34.0726 5.98624 33.7923 5.70952C31.0033 2.95336 27.8714 2.9698 25.085 5.7835C20.4285 10.5104 15.7855 15.2493 11.1561 19.9999C10.8028 20.4283 10.4869 20.8867 10.2119 21.3698L7.23242 18.4684C10.6391 15.1808 13.986 11.9917 17.3002 8.75884C19.1178 6.98076 20.8702 5.13419 22.6552 3.32323C27.0741 -1.16444 32.927 -0.85484 37.0058 4.189Z" fill="#181818"/>
<path d="M11.5508 35.8987C12.3671 35.0767 13.1263 34.3233 13.9208 33.5288C14.514 34.0767 15.0337 34.663 15.6296 35.137C17.8989 36.9507 21.0254 36.6904 23.2485 34.4411C27.983 29.6575 32.6795 24.8356 37.3978 20.0247C37.7461 19.6685 38.0617 19.2795 38.5188 18.7644L41.0086 21.7781C37.9284 24.7617 34.6631 27.9041 31.3979 31.0849C29.6129 32.8356 27.8824 34.6466 26.1409 36.4356C21.5533 41.1644 15.9425 41.0083 11.5508 35.8987Z" fill="#181818"/>
</g>
<defs>
<clipPath id="clip0_151_495">
<rect width="277" height="40" fill="white"/>
</clipPath>
</defs>
</svg>
