<svg width="182" height="48" viewBox="0 0 182 48" fill="none" xmlns="http://www.w3.org/2000/svg">
<g clip-path="url(#clip0_151_483)">
<path d="M98.9103 47.5861C98.926 44.7262 98.9422 41.8688 98.959 39.0141C98.959 38.0351 98.959 37.0545 98.959 35.9254C98.8387 36.0188 98.7253 36.1212 98.6195 36.2318C95.0651 41.0533 85.9105 40.9613 83.2388 32.9593C81.7893 28.6174 82.0328 24.3046 84.7768 20.5004C88.0862 15.9041 94.6813 15.6759 98.4113 19.8983C98.5398 20.0515 98.6726 20.1894 98.9368 20.4835V17.45H101.862V47.5845L98.9103 47.5861ZM98.9545 28.1945C98.9752 26.4571 98.6992 24.781 97.8593 23.2581C96.4674 20.7302 94.2842 19.696 91.5579 19.8738C88.9379 20.0454 87.143 21.4932 86.2278 24.0211C85.2123 26.8233 85.1946 29.6806 86.2544 32.4675C87.2257 35.0138 89.1387 36.3682 91.7602 36.5076C94.2783 36.6424 96.336 35.6557 97.6984 33.3898C98.6534 31.8087 98.9708 30.0391 98.9545 28.1945Z" fill="#181818"/>
<path d="M58.4409 33.8909L61.0063 31.9513C61.0994 32.0525 61.1871 32.1589 61.2691 32.27C63.6898 36.0328 68.4428 37.0409 72.0311 35.947C74.7102 35.1334 76.1332 33.01 75.9162 30.2231C75.8099 28.8672 75.2106 27.7442 74.0489 27.2126C72.3308 26.4235 70.5167 25.8551 68.7351 25.2025C66.887 24.5253 64.9607 24.0212 63.1968 23.1587C57.8313 20.5327 58.3878 13.1189 62.7983 10.3413C67.721 7.2388 75.1309 8.65598 78.5391 13.5464L76.1125 15.5151C74.8962 13.9248 73.4246 12.8018 71.5957 12.2671C69.296 11.5945 67.0199 11.6144 64.8574 12.7972C62.9961 13.8145 62.1665 15.846 62.7333 17.8332C63.0064 18.7892 63.5644 19.5644 64.4072 19.9781C65.6555 20.5671 66.9331 21.0867 68.2347 21.5347C70.2067 22.2364 72.2289 22.7971 74.1759 23.5647C75.1363 23.96 76.0259 24.5198 76.8077 25.2208C80.2233 28.2406 79.9222 34.1177 76.2468 37.1711C74.6615 38.4887 72.8164 39.1628 70.8281 39.3742C66.4368 39.8262 62.5237 38.7614 59.4624 35.2529C59.0992 34.8439 58.7996 34.3766 58.4409 33.8909Z" fill="#181818"/>
<path d="M181.737 28.7048H165.927C165.512 31.2863 167.218 34.5711 169.546 35.7524C171.128 36.5326 172.917 36.7355 174.624 36.3281C176.331 35.9207 177.856 34.9269 178.95 33.5079L181.017 35.4C180.131 36.6062 178.992 37.5866 177.687 38.2665C173.474 40.5003 168.108 39.5534 165.255 36.0496C163.435 33.8143 162.77 31.1546 162.774 28.2957C162.774 24.729 163.704 21.4933 166.449 19.1415C169.365 16.6458 172.718 16.2903 176.172 17.6416C179.485 18.9393 181.25 21.6373 181.719 25.2224C181.86 26.3408 181.737 27.4929 181.737 28.7048ZM165.971 25.9777H178.736C178.627 22.4049 176.101 19.8861 172.621 19.8233C168.932 19.7589 166.221 22.244 165.971 25.9777Z" fill="#181818"/>
<path d="M130.963 22.149L129.468 19.7957C131.131 18.4052 133.116 17.4909 135.225 17.1437C137.262 16.7821 139.293 16.7913 141.258 17.5666C143.547 18.469 144.937 20.4392 144.948 22.9472C144.98 28.1287 144.96 33.3102 144.96 38.4933C144.96 38.6158 144.932 38.7399 144.905 38.9652C144.092 38.9652 143.281 38.9927 142.486 38.9391C142.338 38.9299 142.109 38.6021 142.087 38.4013C142.053 37.8766 142.046 37.3503 142.068 36.8248C141.954 36.8248 141.892 36.8064 141.872 36.8248C139.154 39.7097 135.888 40.0146 132.404 38.8518C129.908 38.0183 128.507 35.7876 128.475 32.9808C128.442 30.2231 129.656 28.1594 132.194 27.26C133.945 26.6472 135.829 26.4266 137.638 25.9762C138.689 25.7353 139.721 25.41 140.723 25.0033C141.632 24.6157 142.08 23.8021 142.052 22.7373C142.024 21.6725 141.514 20.9494 140.642 20.4898C139.176 19.7237 137.604 19.7099 136.026 19.9198C134.181 20.1742 132.473 20.8345 130.963 22.149ZM141.987 27.306C139.931 28.403 137.721 28.6251 135.564 29.0786C134.797 29.2478 134.043 29.4751 133.307 29.7589C132.944 29.8853 132.612 30.0945 132.337 30.3713C132.062 30.6481 131.85 30.9854 131.716 31.3584C130.978 33.3761 131.927 35.495 133.895 36.1783C134.386 36.3377 134.892 36.4445 135.405 36.497C138.701 36.9091 141.513 34.9097 141.954 31.6893C142.146 30.2951 141.987 28.8488 141.987 27.306Z" fill="#181818"/>
<path d="M124.023 38.9223H121.218V35.9961C120.914 36.3147 120.755 36.4725 120.603 36.6411C119.445 37.9262 117.946 38.8272 116.296 39.2309C114.646 39.6347 112.918 39.523 111.329 38.9101C108.844 37.9311 107.652 35.8842 107.21 33.2889C107.095 32.533 107.041 31.7683 107.05 31.003C107.035 26.7913 107.05 22.5766 107.05 18.3679V17.4717H109.957V18.2668C109.957 22.2747 109.957 26.2827 109.965 30.2906C109.959 31.0546 110.011 31.8179 110.121 32.5734C110.589 35.5242 112.391 36.7391 115.161 36.494C118.781 36.1738 121.177 33.3027 121.199 29.3775C121.22 25.7005 121.199 22.0235 121.199 18.3465V17.4609H124.032L124.023 38.9223Z" fill="#181818"/>
<path d="M150.188 38.9683V17.4762H153.016V19.8678L153.299 20.0746C153.394 19.877 153.447 19.6365 153.594 19.4909C155.678 17.3583 158.107 16.4605 160.992 17.3782C162.04 17.7122 162.037 17.7781 161.689 18.8168C161.497 19.3883 161.307 19.9597 161.171 20.3673C160.009 20.2616 158.929 19.9797 157.894 20.1068C155.441 20.4132 153.704 22.4049 153.249 25.2378C153.118 26.1198 153.056 27.0112 153.061 27.9036C153.039 31.3242 153.039 34.7459 153.061 38.1685C153.061 38.7952 152.905 39.0372 152.278 38.9867C151.6 38.9254 150.914 38.9683 150.188 38.9683Z" fill="#181818"/>
<path fill-rule="evenodd" clip-rule="evenodd" d="M18.4028 0.413818C8.46171 0.413818 0.402832 8.47271 0.402832 18.4138V29.5862C0.402832 39.5274 8.46171 47.5862 18.4028 47.5862H27.9028C37.844 47.5862 45.9028 39.5273 45.9028 29.5862V18.4138C45.9028 8.47269 37.844 0.413818 27.9028 0.413818H18.4028ZM15.4559 8.68968C11.5899 8.68968 8.45593 11.8237 8.45593 15.6897V32.3104C8.45593 36.1764 11.5899 39.3104 15.4559 39.3104H30.8497C34.7157 39.3104 37.8497 36.1764 37.8497 32.3104V15.6897C37.8497 11.8237 34.7157 8.68968 30.8497 8.68968H15.4559Z" fill="#181818"/>
<rect x="16.9116" y="17.3794" width="12.4823" height="13.2414" rx="4" fill="#181818"/>
</g>
<defs>
<clipPath id="clip0_151_483">
<rect width="182" height="48" fill="white"/>
</clipPath>
</defs>
</svg>
